<svg width="15" height="16" viewBox="0 0 15 16" fill="none" xmlns="http://www.w3.org/2000/svg">
<g clip-path="url(#clip0_688_2609)">
<path d="M9.84375 5.5C9.84375 4.20789 8.79272 3.15625 7.5 3.15625C6.20728 3.15625 5.15625 4.20789 5.15625 5.5C5.15625 6.79211 6.20728 7.84375 7.5 7.84375C8.79272 7.84375 9.84375 6.79211 9.84375 5.5ZM6.09375 5.5C6.09375 4.72485 6.72485 4.09375 7.5 4.09375C8.27515 4.09375 8.90625 4.72485 8.90625 5.5C8.90625 6.27515 8.27515 6.90625 7.5 6.90625C6.72485 6.90625 6.09375 6.27515 6.09375 5.5Z" fill="#906D0F"/>
<path d="M14.8304 14.7615L13.5804 9.76147C13.5279 9.55273 13.3399 9.40625 13.125 9.40625H10.8896C11.8868 8.11536 12.3438 7.00482 12.3438 5.5C12.3438 2.8291 10.1709 0.65625 7.50004 0.65625C4.82914 0.65625 2.65629 2.8291 2.65629 5.5C2.65629 7.00482 3.11329 8.11536 4.11045 9.40625H1.87504C1.6602 9.40625 1.47221 9.55273 1.41972 9.76147L0.169717 14.7615C0.135538 14.9012 0.167276 15.0496 0.255167 15.1637C0.344278 15.2772 0.480997 15.3438 0.62504 15.3438H14.375C14.5191 15.3438 14.6558 15.2772 14.7449 15.1637C14.8328 15.0496 14.8645 14.9012 14.8304 14.7615ZM7.50004 1.59375C9.65336 1.59375 11.4063 3.34607 11.4063 5.5C11.4063 7.61548 10.3943 8.8075 7.50004 11.7115C4.60575 8.8075 3.59379 7.61548 3.59379 5.5C3.59379 3.34607 5.34672 1.59375 7.50004 1.59375ZM1.22563 14.4062L2.24125 10.3438H4.89346C5.5119 11.0339 6.25462 11.7929 7.16801 12.7064C7.25956 12.798 7.38041 12.8438 7.50004 12.8438C7.61967 12.8438 7.74052 12.798 7.83207 12.7064C8.74546 11.7929 9.48818 11.0339 10.1066 10.3438H12.7588L13.7745 14.4062H1.22563Z" fill="#906D0F"/>
</g>
<defs>
<clipPath id="clip0_688_2609">
<rect width="15" height="15" fill="white" transform="translate(0 0.5)"/>
</clipPath>
</defs>
</svg>
