<svg width="20" height="21" viewBox="0 0 20 21" fill="none" xmlns="http://www.w3.org/2000/svg">
<path d="M13.125 7.37317C12.7798 7.37317 12.5 7.65302 12.5 7.99817C12.5 9.37665 11.3785 10.4982 10 10.4982C8.62152 10.4982 7.5 9.37665 7.5 7.99817C7.5 7.65302 7.22015 7.37317 6.875 7.37317C6.52985 7.37317 6.25 7.65302 6.25 7.99817C6.25 10.066 7.93213 11.7482 10 11.7482C12.0679 11.7482 13.75 10.066 13.75 7.99817C13.75 7.65302 13.4702 7.37317 13.125 7.37317Z" fill="#006C9E"/>
<path d="M18.2852 15.6364L16.8332 6.45764C16.6885 5.54059 15.9097 4.875 14.9811 4.875H13.6935C13.3946 3.10429 11.8545 1.75 9.99999 1.75C8.14548 1.75 6.60541 3.10429 6.30645 4.875H5.01891C4.09026 4.875 3.31145 5.54059 3.1668 6.45734L1.71477 15.6364C1.57195 16.5406 1.83105 17.4586 2.42583 18.1547C3.02032 18.8508 3.88641 19.25 4.80193 19.25H15.1981C16.1136 19.25 16.9797 18.8508 17.5742 18.1547C18.1689 17.4586 18.428 16.5406 18.2852 15.6364ZM9.99999 3C11.1614 3 12.1317 3.79983 12.4112 4.875H7.58876C7.8683 3.79983 8.83857 3 9.99999 3ZM16.6238 17.3427C16.2671 17.7604 15.7474 18 15.1981 18H4.80193C4.25262 18 3.7329 17.7604 3.37615 17.3427C3.0191 16.9249 2.86376 16.3743 2.94952 15.8317L4.40154 6.65234C4.44976 6.34686 4.70946 6.125 5.01891 6.125H14.9811C15.2905 6.125 15.5502 6.34686 15.5984 6.65265L17.0505 15.8317C17.1362 16.3743 16.9809 16.9249 16.6238 17.3427Z" fill="#006C9E"/>
</svg>
