<svg width="20" height="21" viewBox="0 0 20 21" fill="none" xmlns="http://www.w3.org/2000/svg">
<path d="M15 3.625H13.9583V3C13.9583 2.83424 13.8925 2.67527 13.7753 2.55806C13.6581 2.44085 13.4991 2.375 13.3333 2.375C13.1676 2.375 13.0086 2.44085 12.8914 2.55806C12.7742 2.67527 12.7083 2.83424 12.7083 3V3.625H7.29168V3C7.29168 2.83424 7.22583 2.67527 7.10862 2.55806C6.99141 2.44085 6.83244 2.375 6.66668 2.375C6.50092 2.375 6.34195 2.44085 6.22473 2.55806C6.10752 2.67527 6.04168 2.83424 6.04168 3V3.625H5.00001C4.57779 3.57606 4.14998 3.62323 3.74856 3.76297C3.34715 3.90272 2.98253 4.13142 2.68198 4.43197C2.38143 4.73252 2.15273 5.09714 2.01298 5.49855C1.87324 5.89997 1.82607 6.32778 1.87501 6.75V15.5C1.82607 15.9222 1.87324 16.35 2.01298 16.7514C2.15273 17.1529 2.38143 17.5175 2.68198 17.818C2.98253 18.1186 3.34715 18.3473 3.74856 18.487C4.14998 18.6268 4.57779 18.6739 5.00001 18.625H15C15.4222 18.6739 15.85 18.6268 16.2515 18.487C16.6529 18.3473 17.0175 18.1186 17.318 17.818C17.6186 17.5175 17.8473 17.1529 17.987 16.7514C18.1268 16.35 18.1739 15.9222 18.125 15.5V6.75C18.1739 6.32778 18.1268 5.89997 17.987 5.49855C17.8473 5.09714 17.6186 4.73252 17.318 4.43197C17.0175 4.13142 16.6529 3.90272 16.2515 3.76297C15.85 3.62323 15.4222 3.57606 15 3.625ZM5.00001 4.875H6.04168V5.5C6.04168 5.66576 6.10752 5.82473 6.22473 5.94194C6.34195 6.05915 6.50092 6.125 6.66668 6.125C6.83244 6.125 6.99141 6.05915 7.10862 5.94194C7.22583 5.82473 7.29168 5.66576 7.29168 5.5V4.875H12.7083V5.5C12.7083 5.66576 12.7742 5.82473 12.8914 5.94194C13.0086 6.05915 13.1676 6.125 13.3333 6.125C13.4991 6.125 13.6581 6.05915 13.7753 5.94194C13.8925 5.82473 13.9583 5.66576 13.9583 5.5V4.875H15C16.3142 4.875 16.875 5.43583 16.875 6.75V7.375H3.12501V6.75C3.12501 5.43583 3.68584 4.875 5.00001 4.875ZM15 17.375H5.00001C3.68584 17.375 3.12501 16.8142 3.12501 15.5V8.625H16.875V15.5C16.875 16.8142 16.3142 17.375 15 17.375ZM12.525 11.1667C12.5831 11.2247 12.6292 11.2936 12.6606 11.3695C12.692 11.4453 12.7082 11.5266 12.7082 11.6087C12.7082 11.6909 12.692 11.7722 12.6606 11.848C12.6292 11.9239 12.5831 11.9928 12.525 12.0508L9.75001 14.8333C9.6921 14.8915 9.62327 14.9376 9.54747 14.9691C9.47168 15.0006 9.39042 15.0168 9.30834 15.0168C9.22627 15.0168 9.14501 15.0006 9.06921 14.9691C8.99342 14.9376 8.92459 14.8915 8.86668 14.8333L7.47501 13.4417C7.36461 13.3232 7.30451 13.1665 7.30736 13.0046C7.31022 12.8426 7.37581 12.6882 7.49033 12.5736C7.60484 12.4591 7.75932 12.3935 7.92124 12.3907C8.08316 12.3878 8.23986 12.4479 8.35834 12.5583L9.30584 13.505L11.6392 11.1717C11.6969 11.1129 11.7656 11.0661 11.8414 11.0341C11.9173 11.002 11.9987 10.9852 12.0811 10.9848C12.1634 10.9843 12.245 11.0001 12.3212 11.0314C12.3974 11.0626 12.4667 11.1086 12.525 11.1667Z" fill="#006C9E"/>
</svg>
