<svg width="24" height="24" viewBox="0 0 24 24" fill="none" xmlns="http://www.w3.org/2000/svg">
<g clip-path="url(#clip0_691_10374)">
<path fill-rule="evenodd" clip-rule="evenodd" d="M24 12C24 18.6274 18.6274 24 12 24C5.37257 24 0 18.6274 0 12C0 5.37257 5.37257 0 12 0C18.6274 0 24 5.37257 24 12Z" fill="#E92B2B"/>
<path d="M5.87406 5.14282L6.45134 6.91963H8.31959L6.80818 8.01779L7.38547 9.79459L5.87406 8.69643L4.36259 9.79459L4.93993 8.01779L3.42847 6.91963H5.29672L5.87406 5.14282Z" fill="#FFE70E"/>
<path d="M10.1599 3.85712L10.3524 4.4494H10.9751L10.4713 4.81546L10.6637 5.40769L10.1599 5.04163L9.65608 5.40769L9.84851 4.81546L9.34473 4.4494H9.96744L10.1599 3.85712Z" fill="#FFE70E"/>
<path d="M10.1599 9.85712L10.3524 10.4494H10.9751L10.4713 10.8155L10.6637 11.4077L10.1599 11.0416L9.65608 11.4077L9.84851 10.8155L9.34473 10.4494H9.96744L10.1599 9.85712Z" fill="#FFE70E"/>
<path d="M11.8742 5.5714L12.0667 6.16368H12.6894L12.1856 6.52974L12.3781 7.12197L11.8742 6.75591L11.3704 7.12197L11.5629 6.52974L11.0591 6.16368H11.6818L11.8742 5.5714Z" fill="#FFE70E"/>
<path d="M11.8742 8.14282L12.0667 8.73511H12.6894L12.1856 9.10116L12.3781 9.69339L11.8742 9.32734L11.3704 9.69339L11.5629 9.10116L11.0591 8.73511H11.6818L11.8742 8.14282Z" fill="#FFE70E"/>
</g>
<defs>
<clipPath id="clip0_691_10374">
<rect width="24" height="24" fill="white"/>
</clipPath>
</defs>
</svg>
