<svg width="16" height="17" viewBox="0 0 16 17" fill="none" xmlns="http://www.w3.org/2000/svg">
<path fill-rule="evenodd" clip-rule="evenodd" d="M8.00013 2.89204C6.68979 2.89204 5.48557 3.34089 4.53101 4.09353L3.99684 3.41605C5.09815 2.5477 6.4892 2.0293 8.00013 2.0293C11.5737 2.0293 14.4707 4.92627 14.4707 8.49989C14.4707 9.14159 14.3772 9.76217 14.2027 10.3484L13.3758 10.1023C13.5268 9.59514 13.608 9.05739 13.608 8.49989C13.608 5.40276 11.0973 2.89204 8.00013 2.89204ZM2.62446 6.89742C2.4735 7.40463 2.39229 7.94238 2.39229 8.49989C2.39229 11.5971 4.903 14.1077 8.00013 14.1077C9.31047 14.1077 10.5147 13.6588 11.4692 12.9063L12.0034 13.5837C10.9021 14.452 9.51105 14.9705 8.00013 14.9705C4.42652 14.9705 1.52954 12.0735 1.52954 8.49989C1.52954 7.85818 1.62308 7.2376 1.79755 6.65135L2.62446 6.89742Z" fill="white"/>
<path fill-rule="evenodd" clip-rule="evenodd" d="M7.99995 5.44429C6.71946 5.44429 5.68135 6.48237 5.68135 7.76292C5.68135 9.04349 6.71946 10.0815 7.99995 10.0815C9.28052 10.0815 10.3186 9.04349 10.3186 7.76292C10.3186 6.48237 9.28052 5.44429 7.99995 5.44429ZM4.8186 7.76292C4.8186 6.00589 6.24295 4.58154 7.99995 4.58154C9.75702 4.58154 11.1813 6.00589 11.1813 7.76292C11.1813 9.5199 9.75702 10.9443 7.99995 10.9443C6.24295 10.9443 4.8186 9.5199 4.8186 7.76292Z" fill="white"/>
<path fill-rule="evenodd" clip-rule="evenodd" d="M7.77009 10.9443C6.22941 10.9443 4.98042 12.1932 4.98042 13.734H4.11768C4.11768 11.7168 5.75293 10.0815 7.77009 10.0815H8.22985C10.2471 10.0815 11.8824 11.7168 11.8824 13.734H11.0196C11.0196 12.1932 9.77062 10.9443 8.22985 10.9443H7.77009Z" fill="white"/>
<path fill-rule="evenodd" clip-rule="evenodd" d="M3.20673 1.26211C3.30827 1.344 3.3673 1.46744 3.3673 1.59788V2.70832C4.41422 2.90981 5.20509 3.83083 5.20509 4.93655C5.20509 6.18978 4.18915 7.20572 2.93592 7.20572C1.68269 7.20572 0.666748 6.18978 0.666748 4.93655C0.666748 3.36818 1.16071 2.41995 1.70949 1.86204C1.97922 1.58781 2.25152 1.41893 2.46104 1.31766C2.56578 1.26703 2.65519 1.23313 2.72142 1.2112C2.75457 1.20024 2.78203 1.19223 2.80284 1.18662C2.81325 1.1838 2.82201 1.18159 2.82899 1.17989L2.83815 1.17773L2.84171 1.17692L2.84323 1.17658C2.84356 1.1765 2.84458 1.17629 2.93592 1.59788L2.84458 1.17629C2.97206 1.14867 3.1052 1.18021 3.20673 1.26211ZM2.50455 2.30478C2.4459 2.35145 2.38536 2.40522 2.32456 2.46703C1.95443 2.84333 1.52949 3.56444 1.52949 4.93655C1.52949 5.7133 2.15918 6.34298 2.93592 6.34298C3.71267 6.34298 4.34234 5.7133 4.34234 4.93655C4.34234 4.1598 3.71267 3.53012 2.93592 3.53012C2.69768 3.53012 2.50455 3.33699 2.50455 3.09875V2.30478Z" fill="white"/>
<path fill-rule="evenodd" clip-rule="evenodd" d="M12.7933 15.7376C12.6918 15.6557 12.6327 15.5322 12.6327 15.4018V14.2913C11.5858 14.0898 10.7949 13.1688 10.7949 12.0631C10.7949 10.8099 11.8109 9.79395 13.0641 9.79395C14.3173 9.79395 15.3333 10.8099 15.3333 12.0631C15.3333 13.6315 14.8393 14.5797 14.2906 15.1376C14.0208 15.4119 13.7485 15.5807 13.539 15.682C13.4342 15.7327 13.3449 15.7666 13.2786 15.7885C13.2455 15.7994 13.218 15.8075 13.1972 15.8131C13.1868 15.8159 13.1781 15.8181 13.1711 15.8198L13.1619 15.8219L13.1583 15.8227L13.1569 15.8231C13.1565 15.8232 13.1555 15.8234 13.0641 15.4018L13.1555 15.8234C13.028 15.851 12.8948 15.8194 12.7933 15.7376ZM13.4955 14.6949C13.5542 14.6482 13.6147 14.5944 13.6755 14.5327C14.0457 14.1563 14.4706 13.4352 14.4706 12.0631C14.4706 11.2864 13.8408 10.6567 13.0641 10.6567C12.2874 10.6567 11.6577 11.2864 11.6577 12.0631C11.6577 12.8399 12.2874 13.4696 13.0641 13.4696C13.3024 13.4696 13.4955 13.6627 13.4955 13.901V14.6949Z" fill="white"/>
</svg>
