<svg width="16" height="16" viewBox="0 0 16 16" fill="none" xmlns="http://www.w3.org/2000/svg">
<path d="M7.33337 13H11.1334C10.9362 13.4928 10.5957 13.915 10.156 14.2121C9.7162 14.5093 9.19741 14.6676 8.66669 14.6667H4.00003C3.64981 14.6668 3.30301 14.5979 2.97943 14.4639C2.65585 14.3299 2.36184 14.1335 2.1142 13.8859C1.86656 13.6382 1.67014 13.3442 1.53616 13.0206C1.40218 12.6971 1.33328 12.3502 1.33337 12V6.66669C1.33416 6.01731 1.57147 5.39045 2.00091 4.90334C2.43035 4.41623 3.02253 4.10223 3.66669 4.02006V9.33337C3.66669 11.3534 5.31334 13 7.33337 13ZM13 4.16669H14.4134C14.3724 4.1066 14.3255 4.05077 14.2733 4.00003L12 1.72659C11.9509 1.67469 11.8948 1.62989 11.8334 1.59347V3.00003C11.8348 3.30899 11.9582 3.60488 12.1767 3.82336C12.3952 4.04183 12.6911 4.16522 13 4.16669ZM13 5.16669C12.4257 5.16558 11.8753 4.93695 11.4692 4.53086C11.0631 4.12478 10.8345 3.57432 10.8334 3.00003V1.33337H7.33337C6.98316 1.33328 6.63635 1.40218 6.31277 1.53616C5.98919 1.67014 5.69518 1.86656 5.44753 2.1142C5.19989 2.36184 5.00346 2.65585 4.86948 2.97943C4.7355 3.303 4.66659 3.64981 4.66669 4.00003V9.33337C4.6666 9.68359 4.73551 10.0304 4.86949 10.354C5.00347 10.6775 5.1999 10.9716 5.44754 11.2192C5.69518 11.4668 5.98919 11.6633 6.31277 11.7972C6.63635 11.9312 6.98316 12.0001 7.33337 12H12C12.3502 12.0001 12.6971 11.9312 13.0206 11.7972C13.3442 11.6633 13.6382 11.4668 13.8859 11.2192C14.1335 10.9716 14.3299 10.6775 14.4639 10.354C14.5979 10.0304 14.6668 9.68359 14.6667 9.33337V5.16669H13Z" fill="#53B8E6"/>
</svg>
