<svg width="18" height="19" viewBox="0 0 18 19" fill="none" xmlns="http://www.w3.org/2000/svg">
<mask id="path-1-inside-1_1369_10986" fill="white">
<path d="M4.08907 17H10.9109C12.2222 17 13.2975 16.0161 13.4657 14.75H13.9109C15.3384 14.75 16.5 13.5884 16.5 12.1609V4.58907C16.5 3.1616 15.3384 2 13.9109 2H7.08907C5.6616 2 4.5 3.1616 4.5 4.58907V5H4.08907C2.6616 5 1.5 6.1616 1.5 7.58907V14.4109C1.5 15.8384 2.6616 17 4.08907 17ZM6 4.58907C6 3.98855 6.48855 3.5 7.08907 3.5H13.9109C14.5115 3.5 15 3.98855 15 4.58907V12.1609C15 12.7615 14.5114 13.25 13.9109 13.25H13.5V7.58907C13.5 6.1616 12.3384 5 10.9109 5H6V4.58907ZM3 7.58907C3 6.98855 3.48855 6.5 4.08907 6.5H10.9109C11.5115 6.5 12 6.98855 12 7.58907V14.4109C12 15.0115 11.5115 15.5 10.9109 15.5H4.08907C3.48855 15.5 3 15.0114 3 14.4109V7.58907Z"/>
</mask>
<path d="M4.08907 17H10.9109C12.2222 17 13.2975 16.0161 13.4657 14.75H13.9109C15.3384 14.75 16.5 13.5884 16.5 12.1609V4.58907C16.5 3.1616 15.3384 2 13.9109 2H7.08907C5.6616 2 4.5 3.1616 4.5 4.58907V5H4.08907C2.6616 5 1.5 6.1616 1.5 7.58907V14.4109C1.5 15.8384 2.6616 17 4.08907 17ZM6 4.58907C6 3.98855 6.48855 3.5 7.08907 3.5H13.9109C14.5115 3.5 15 3.98855 15 4.58907V12.1609C15 12.7615 14.5114 13.25 13.9109 13.25H13.5V7.58907C13.5 6.1616 12.3384 5 10.9109 5H6V4.58907ZM3 7.58907C3 6.98855 3.48855 6.5 4.08907 6.5H10.9109C11.5115 6.5 12 6.98855 12 7.58907V14.4109C12 15.0115 11.5115 15.5 10.9109 15.5H4.08907C3.48855 15.5 3 15.0114 3 14.4109V7.58907Z" fill="#006C9E"/>
<path d="M13.4657 14.75V-6.58333H-5.22183L-7.68201 11.9415L13.4657 14.75ZM4.5 5V26.3333H25.8333V5H4.5ZM13.5 13.25H-7.83333V34.5833H13.5V13.25ZM6 5H-15.3333V26.3333H6V5ZM4.08907 17V38.3333H10.9109V17V-4.33333H4.08907V17ZM10.9109 17V38.3333C23.2332 38.3333 33.0788 29.1135 34.6133 17.5585L13.4657 14.75L-7.68201 11.9415C-6.48376 2.91885 1.21129 -4.33333 10.9109 -4.33333V17ZM13.4657 14.75V36.0833H13.9109V14.75V-6.58333H13.4657V14.75ZM13.9109 14.75V36.0833C27.1201 36.0833 37.8333 25.3709 37.8333 12.1609H16.5H-4.83333C-4.83333 1.80592 3.55673 -6.58333 13.9109 -6.58333V14.75ZM16.5 12.1609H37.8333V4.58907H16.5H-4.83333V12.1609H16.5ZM16.5 4.58907H37.8333C37.8333 -8.62048 27.1205 -19.3333 13.9109 -19.3333V2V23.3333C3.55633 23.3333 -4.83333 14.9437 -4.83333 4.58907H16.5ZM13.9109 2V-19.3333H7.08907V2V23.3333H13.9109V2ZM7.08907 2V-19.3333C-6.12048 -19.3333 -16.8333 -8.62048 -16.8333 4.58907H4.5H25.8333C25.8333 14.9437 17.4437 23.3333 7.08907 23.3333V2ZM4.5 4.58907H-16.8333V5H4.5H25.8333V4.58907H4.5ZM4.5 5V-16.3333H4.08907V5V26.3333H4.5V5ZM4.08907 5V-16.3333C-9.12048 -16.3333 -19.8333 -5.62048 -19.8333 7.58907H1.5H22.8333C22.8333 17.9437 14.4437 26.3333 4.08907 26.3333V5ZM1.5 7.58907H-19.8333V14.4109H1.5H22.8333V7.58907H1.5ZM1.5 14.4109H-19.8333C-19.8333 27.6201 -9.12088 38.3333 4.08907 38.3333V17V-4.33333C14.4441 -4.33333 22.8333 4.05673 22.8333 14.4109H1.5ZM6 4.58907H27.3333C27.3333 15.7706 18.2706 24.8333 7.08907 24.8333V3.5V-17.8333C-5.29353 -17.8333 -15.3333 -7.79353 -15.3333 4.58907H6ZM7.08907 3.5V24.8333H13.9109V3.5V-17.8333H7.08907V3.5ZM13.9109 3.5V24.8333C2.73033 24.8333 -6.33333 15.7716 -6.33333 4.58907H15H36.3333C36.3333 -7.79448 26.2926 -17.8333 13.9109 -17.8333V3.5ZM15 4.58907H-6.33333V12.1609H15H36.3333V4.58907H15ZM15 12.1609H-6.33333C-6.33333 0.980315 2.72843 -8.08333 13.9109 -8.08333V13.25V34.5833C26.2945 34.5833 36.3333 24.5426 36.3333 12.1609H15ZM13.9109 13.25V-8.08333H13.5V13.25V34.5833H13.9109V13.25ZM13.5 13.25H34.8333V7.58907H13.5H-7.83333V13.25H13.5ZM13.5 7.58907H34.8333C34.8333 -5.62048 24.1205 -16.3333 10.9109 -16.3333V5V26.3333C0.556325 26.3333 -7.83333 17.9437 -7.83333 7.58907H13.5ZM10.9109 5V-16.3333H6V5V26.3333H10.9109V5ZM6 5H27.3333V4.58907H6H-15.3333V5H6ZM3 7.58907H24.3333C24.3333 18.7706 15.2706 27.8333 4.08907 27.8333V6.5V-14.8333C-8.29353 -14.8333 -18.3333 -4.79353 -18.3333 7.58907H3ZM4.08907 6.5V27.8333H10.9109V6.5V-14.8333H4.08907V6.5ZM10.9109 6.5V27.8333C-0.269666 27.8333 -9.33333 18.7716 -9.33333 7.58907H12H33.3333C33.3333 -4.79448 23.2926 -14.8333 10.9109 -14.8333V6.5ZM12 7.58907H-9.33333V14.4109H12H33.3333V7.58907H12ZM12 14.4109H-9.33333C-9.33333 3.23033 -0.271583 -5.83333 10.9109 -5.83333V15.5V36.8333C23.2945 36.8333 33.3333 26.7926 33.3333 14.4109H12ZM10.9109 15.5V-5.83333H4.08907V15.5V36.8333H10.9109V15.5ZM4.08907 15.5V-5.83333C15.2706 -5.83333 24.3333 3.22939 24.3333 14.4109H3H-18.3333C-18.3333 26.7935 -8.29354 36.8333 4.08907 36.8333V15.5ZM3 14.4109H24.3333V7.58907H3H-18.3333V14.4109H3Z" fill="#006C9E" mask="url(#path-1-inside-1_1369_10986)"/>
</svg>
