<svg width="24" height="24" viewBox="0 0 24 24" fill="none" xmlns="http://www.w3.org/2000/svg">
<path fill-rule="evenodd" clip-rule="evenodd" d="M4.45121 15.84C4.9814 15.84 5.41121 16.2698 5.41121 16.8V18.72C5.41121 18.9746 5.51234 19.2187 5.6924 19.3988C5.87242 19.5788 6.11659 19.68 6.37121 19.68H17.8912C18.1458 19.68 18.3899 19.5789 18.57 19.3988C18.7501 19.2187 18.8512 18.9746 18.8512 18.72V16.8C18.8512 16.2698 19.281 15.84 19.8112 15.84C20.3414 15.84 20.7712 16.2698 20.7712 16.8V18.72C20.7712 19.4837 20.4678 20.2163 19.9276 20.7564C19.3875 21.2965 18.655 21.6 17.8912 21.6H6.37121C5.60741 21.6 4.87484 21.2966 4.33472 20.7564C3.79465 20.2163 3.49121 19.4837 3.49121 18.72V16.8C3.49121 16.2698 3.92101 15.84 4.45121 15.84Z" fill="black"/>
<path fill-rule="evenodd" clip-rule="evenodd" d="M6.65251 10.3611C7.02742 9.98623 7.63525 9.98623 8.01016 10.3611L12.1313 14.4823L16.2525 10.3611C16.6274 9.98623 17.2353 9.98623 17.6101 10.3611C17.9851 10.736 17.9851 11.3439 17.6101 11.7188L12.8101 16.5188C12.4353 16.8937 11.8274 16.8937 11.4525 16.5188L6.65251 11.7188C6.27761 11.3439 6.27761 10.736 6.65251 10.3611Z" fill="black"/>
<path fill-rule="evenodd" clip-rule="evenodd" d="M12.1311 3.35999C12.6614 3.35999 13.0911 3.7898 13.0911 4.31999V15.84C13.0911 16.3702 12.6614 16.8 12.1311 16.8C11.6009 16.8 11.1711 16.3702 11.1711 15.84V4.31999C11.1711 3.7898 11.6009 3.35999 12.1311 3.35999Z" fill="black"/>
</svg>
