<svg width="18" height="19" viewBox="0 0 18 19" fill="none" xmlns="http://www.w3.org/2000/svg">
<path d="M6.04334 16.7001C5.85411 16.2372 5.70029 15.7561 5.58523 15.2601H12.613C12.498 15.7561 12.3442 16.2372 12.1549 16.7001H6.04334Z" fill="#006C9E" stroke="#006C9E" stroke-width="20.48"/>
<mask id="path-2-inside-1_1025_1672" fill="white">
<path fill-rule="evenodd" clip-rule="evenodd" d="M4.99018 8.27094C5.27136 7.98976 5.72723 7.98976 6.00842 8.27094L9.09928 11.3618L12.1902 8.27094C12.4713 7.98976 12.9272 7.98976 13.2084 8.27094C13.4896 8.5521 13.4896 9.00801 13.2084 9.28917L9.60839 12.8892C9.32723 13.1703 8.87133 13.1703 8.59017 12.8892L4.99018 9.28917C4.709 9.00801 4.709 8.5521 4.99018 8.27094Z"/>
</mask>
<path fill-rule="evenodd" clip-rule="evenodd" d="M4.99018 8.27094C5.27136 7.98976 5.72723 7.98976 6.00842 8.27094L9.09928 11.3618L12.1902 8.27094C12.4713 7.98976 12.9272 7.98976 13.2084 8.27094C13.4896 8.5521 13.4896 9.00801 13.2084 9.28917L9.60839 12.8892C9.32723 13.1703 8.87133 13.1703 8.59017 12.8892L4.99018 9.28917C4.709 9.00801 4.709 8.5521 4.99018 8.27094Z" fill="#006C9E"/>
<path d="M4.99018 8.27094L19.4714 22.7529L19.4717 22.7525L4.99018 8.27094ZM6.00842 8.27094L20.49 -6.21055L20.49 -6.2106L6.00842 8.27094ZM9.09928 11.3618L-5.38232 25.8433L9.09923 40.325L23.5808 25.8434L9.09928 11.3618ZM12.1902 8.27094L26.6717 22.7525L26.6723 22.7519L12.1902 8.27094ZM13.2084 8.27094L-1.27371 22.7519L-1.2713 22.7543L13.2084 8.27094ZM13.2084 9.28917L-1.2713 -5.19423L-1.27315 -5.19238L13.2084 9.28917ZM9.60839 12.8892L24.0899 27.3707L24.0899 27.3707L9.60839 12.8892ZM8.59017 12.8892L-5.89139 27.3707L-5.89138 27.3707L8.59017 12.8892ZM4.99018 9.28917L19.4717 -5.19236L19.4714 -5.19275L4.99018 9.28917ZM19.4717 22.7525C11.755 30.4692 -0.756376 30.4692 -8.47313 22.7525L20.49 -6.2106C12.2108 -14.4897 -1.21225 -14.4897 -9.49137 -6.2106L19.4717 22.7525ZM-8.47318 22.7524L-5.38232 25.8433L23.5809 -3.11966L20.49 -6.21055L-8.47318 22.7524ZM23.5808 25.8434L26.6717 22.7525L-2.29138 -6.2106L-5.38227 -3.11971L23.5808 25.8434ZM26.6723 22.7519C18.9554 30.4694 6.44319 30.4694 -1.27371 22.7519L27.6905 -6.21004C19.4113 -14.4899 5.98729 -14.4899 -2.29193 -6.21004L26.6723 22.7519ZM-1.2713 22.7543C-8.99048 15.0371 -8.99048 2.52297 -1.2713 -5.19423L27.6881 23.7726C35.9697 15.493 35.9697 2.06707 27.6881 -6.21245L-1.2713 22.7543ZM-1.27315 -5.19238L-4.87315 -1.59238L24.0899 27.3707L27.6899 23.7707L-1.27315 -5.19238ZM-4.87315 -1.59238C2.84362 -9.30916 15.3549 -9.30916 23.0717 -1.59238L-5.89138 27.3707C2.38772 35.6498 15.8108 35.6498 24.0899 27.3707L-4.87315 -1.59238ZM23.0717 -1.59236L19.4717 -5.19236L-9.49138 23.7707L-5.89139 27.3707L23.0717 -1.59236ZM19.4714 -5.19275C27.1886 2.52411 27.1886 15.036 19.4714 22.7529L-9.491 -6.21097C-17.7706 2.06821 -17.7706 15.4919 -9.491 23.7711L19.4714 -5.19275Z" fill="#006C9E" mask="url(#path-2-inside-1_1025_1672)"/>
<path fill-rule="evenodd" clip-rule="evenodd" d="M9.09891 3.02002C9.49656 3.02002 9.81891 3.34238 9.81891 3.74002V12.38C9.81891 12.7777 9.49656 13.1 9.09891 13.1C8.70125 13.1 8.37891 12.7777 8.37891 12.38V3.74002C8.37891 3.34238 8.70125 3.02002 9.09891 3.02002Z" fill="#006C9E"/>
</svg>
