<svg width="24" height="24" viewBox="0 0 24 24" fill="none" xmlns="http://www.w3.org/2000/svg">
<g clip-path="url(#clip0_691_10333)">
<path d="M12 24C18.6274 24 24 18.6274 24 12C24 5.37258 18.6274 0 12 0C5.37258 0 0 5.37258 0 12C0 18.6274 5.37258 24 12 24Z" fill="#0052B4"/>
<path d="M12 4.69566L12.3886 5.8914H13.6458L12.6286 6.63038L13.0172 7.82612L12 7.08708L10.9828 7.82612L11.3714 6.63038L10.3542 5.8914H11.6115L12 4.69566Z" fill="#FFDA44"/>
<path d="M6.83523 6.83503L7.95554 7.40578L8.84453 6.51685L8.64779 7.75856L9.76806 8.32936L8.52629 8.52605L8.32961 9.76786L7.75881 8.6476L6.51709 8.84433L7.40607 7.95535L6.83523 6.83503Z" fill="#FFDA44"/>
<path d="M4.6958 12L5.89153 11.6115V10.3542L6.63047 11.3714L7.82625 10.9829L7.08718 12L7.82625 13.0172L6.63047 12.6287L5.89153 13.6458V12.3886L4.6958 12Z" fill="#FFDA44"/>
<path d="M6.83523 17.165L7.40603 16.0447L6.51709 15.1557L7.75886 15.3525L8.32956 14.2322L8.52629 15.474L9.76801 15.6706L8.64789 16.2414L8.84453 17.4832L7.95554 16.5942L6.83523 17.165Z" fill="#FFDA44"/>
<path d="M12 19.3044L11.6114 18.1086H10.3542L11.3714 17.3696L10.9828 16.174L12 16.9129L13.0172 16.174L12.6286 17.3696L13.6458 18.1086H12.3885L12 19.3044Z" fill="#FFDA44"/>
<path d="M17.1652 17.165L16.0449 16.5942L15.1559 17.4832L15.3526 16.2414L14.2324 15.6706L15.4741 15.474L15.6708 14.2322L16.2416 15.3525L17.4833 15.1557L16.5943 16.0448L17.1652 17.165Z" fill="#FFDA44"/>
<path d="M19.3044 12L18.1087 12.3886V13.6458L17.3697 12.6286L16.1741 13.0172L16.9131 12L16.1741 10.9829L17.3698 11.3714L18.1087 10.3542V11.6115L19.3044 12Z" fill="#FFDA44"/>
<path d="M17.1652 6.83503L16.5944 7.95535L17.4833 8.84433L16.2415 8.64755L15.6708 9.76781L15.4741 8.52605L14.2324 8.32931L15.3526 7.75856L15.1559 6.51689L16.0449 7.40583L17.1652 6.83503Z" fill="#FFDA44"/>
</g>
<defs>
<clipPath id="clip0_691_10333">
<rect width="24" height="24" fill="white"/>
</clipPath>
</defs>
</svg>
