<svg width="24" height="24" viewBox="0 0 24 24" fill="none" xmlns="http://www.w3.org/2000/svg">
<path fill-rule="evenodd" clip-rule="evenodd" d="M19.751 7.19905C19.9133 7.3614 20 7.579 19.9992 7.80085L20 7.8V20.55C20 21.2266 19.7314 21.8751 19.2529 22.3528C18.7752 22.8314 18.1266 23.1 17.45 23.1H5.55C4.8734 23.1 4.22485 22.8314 3.74715 22.3528C3.2686 21.8751 3 21.2266 3 20.55V3.55C3 2.8734 3.2686 2.22485 3.74715 1.74715C4.22485 1.2686 4.8734 1 5.55 1H13.2C13.4253 1 13.642 1.08925 13.801 1.24905L19.751 7.19905ZM18.3 8.6501V20.55C18.3 20.7752 18.2108 20.992 18.051 21.1509C17.892 21.3107 17.6753 21.4 17.45 21.4H5.55C5.32475 21.4 5.108 21.3107 4.94905 21.1509C4.78925 20.992 4.7 20.7752 4.7 20.55V3.55C4.7 3.32475 4.78925 3.108 4.94905 2.94905C5.108 2.78925 5.32475 2.7 5.55 2.7H12.3501V2.7001V6.1001C12.3501 7.50855 13.4916 8.6501 14.9001 8.6501H18.3ZM14.0501 3.902V6.1001C14.0501 6.5693 14.4309 6.9501 14.9001 6.9501H17.0982L14.0501 3.902ZM12.3499 14.1016L13.4492 15.2009C13.7807 15.5324 14.3196 15.5324 14.6511 15.2009C14.9826 14.8694 14.9826 14.3305 14.6511 13.999L12.1011 11.449C11.7696 11.1166 11.2307 11.1166 10.8992 11.449L8.34921 13.999C8.01771 14.3305 8.01771 14.8694 8.34921 15.2009C8.68071 15.5324 9.21961 15.5324 9.55111 15.2009L10.6499 14.1021V18C10.6499 18.4692 11.0307 18.85 11.4999 18.85C11.9691 18.85 12.3499 18.4692 12.3499 18V14.1016Z" fill="black"/>
</svg>
