<svg width="18" height="19" viewBox="0 0 18 19" fill="none" xmlns="http://www.w3.org/2000/svg">
<path d="M9.76172 5.07519V2.5252C9.76172 2.44944 9.82346 2.3877 9.89922 2.3877C9.97498 2.3877 10.0367 2.44944 10.0367 2.5252V5.07519C10.0367 5.70324 10.5462 6.2127 11.1742 6.2127H13.7242C13.8 6.2127 13.8617 6.27444 13.8617 6.35019C13.8617 6.42595 13.8 6.48769 13.7242 6.48769H11.1742C10.394 6.48769 9.76172 5.85539 9.76172 5.07519Z" fill="#0E82B8" stroke="#0E82B8"/>
<path d="M14.4994 6.34872L14.4947 7.56321L14.5 7.55792V7.57032V7.58686V7.60349V7.6202V7.63701V7.6539V7.67088V7.68794V7.7051V7.72233V7.73965V7.75706V7.77455V7.79212V7.80978V7.82752V7.84534V7.86325V7.88123V7.8993V7.91744V7.93567V7.95398V7.97236V7.99082V8.00936V8.02798V8.04668V8.06545V8.0843V8.10322V8.12222V8.14129V8.16044V8.17966V8.19896V8.21832V8.23776V8.25727V8.27686V8.29651V8.31624V8.33603V8.35589V8.37583V8.39583V8.4159V8.43603V8.45624V8.47651V8.49685V8.51725V8.53772V8.55825V8.57885V8.59951V8.62023V8.64102V8.66187V8.68278V8.70376V8.72479V8.74589V8.76704V8.78826V8.80953V8.83086V8.85225V8.8737V8.89521V8.91677V8.93839V8.96006V8.98179V9.00358V9.02542V9.04731V9.06926V9.09126V9.11331V9.13541V9.15757V9.17978V9.20204V9.22434V9.2467V9.26911V9.29156V9.31407V9.33662V9.35922V9.38187V9.40456V9.4273V9.45008V9.47291V9.49579V9.5187V9.54167V9.56467V9.58772V9.61081V9.63394V9.65711V9.68032V9.70358V9.72687V9.75021V9.77358V9.79699V9.82044V9.84392V9.86744V9.891V9.9146V9.93823V9.9619V9.9856V10.0093V10.0331V10.0569V10.0807V10.1046V10.1285V10.1524V10.1764V10.2004V10.2244V10.2485V10.2725V10.2966V10.3208V10.3449V10.3691V10.3934V10.4176V10.4419V10.4662V10.4905V10.5148V10.5392V10.5636V10.588V10.6124V10.6369V10.6614V10.6859V10.7104V10.7349V10.7595V10.7841V10.8087V10.8333V10.8579V10.8826V10.9073V10.932V10.9567V10.9814V11.0061V11.0308V11.0556V11.0804V11.1052V11.13V11.1548V11.1796V11.2044V11.2293V11.2541V11.279V11.3039V11.3288V11.3536V11.3785V11.4035V11.4284V11.4533V11.4782V11.5031V11.5281V11.553V11.578V11.6029V11.6279V11.6528V11.6778V11.7027V11.7277V11.7527V11.7776V11.8026V11.8275V11.8525V11.8774V11.9024V11.9274V11.9523V11.9772V12.0022V12.0271V12.0521V12.077V12.1019V12.1268V12.1517V12.1766V12.2015V12.2264V12.2513V12.2762V12.301V12.3259V12.3507V12.3755V12.4003V12.4251V12.4499V12.4747V12.4995V12.5242V12.549V12.5737V12.5984V12.6231V12.6478V12.6724V12.6971V12.7217V12.7463V12.7709V12.7954V12.82V12.8445V12.869V12.8935V12.918V12.9424V12.9668V12.9912V13.0156V13.04V13.0643V13.0886V13.1129V13.1371V13.1613V13.1855V13.2097V13.2339V13.258V13.2821V13.3061V13.3302V13.3542V13.3781V13.4021V13.426V13.4499V13.4737V13.4975V13.5213V13.545V13.5687V13.5924V13.6161V13.6397V13.6632V13.6868V13.7103V13.7337V13.7572V13.7805V13.8039V13.8272V13.8505V13.8737V13.8969V13.92V13.9431V13.9662V13.9892V14.0122V14.0351V14.058V14.0808V14.1036V14.1264V14.1491V14.1717V14.1944V14.2169V14.2394V14.2619V14.2843V14.3067V14.329V14.3513V14.3735V14.3957V14.4178V14.4399V14.4619V14.4839V14.5058V14.5276V14.5494V14.5712V14.5929V14.6145V14.6361V14.6576V14.6791V14.7005V14.7218V14.7431V14.7643V14.7855V14.8066V14.8277V14.8487V14.8696V14.8905V14.9113V14.932V14.9527V14.9733V14.9939V15.0144V15.0348V15.0551V15.0754V15.0957V15.1158V15.1359V15.1559V15.1759V15.1958V15.2156V15.2353V15.255V15.2746V15.2941V15.3136V15.333V15.3523V15.3715V15.3907V15.4098V15.4288V15.4478V15.4666V15.4854V15.5042V15.5228V15.5414V15.5598V15.5783V15.5966V15.6148V15.633V15.6511V15.6691V15.687V15.7049V15.7226V15.7403V15.7579V15.7754V15.7929V15.8102V15.8275V15.8447V15.8617V15.8787V15.8957V15.9125C14.5 16.2874 14.3512 16.6465 14.0864 16.9108L14.0858 16.9114C13.8215 17.1762 13.4624 17.325 13.0875 17.325H4.1625C3.78758 17.325 3.42855 17.1762 3.16423 16.9114L3.1636 16.9108C2.89881 16.6465 2.75 16.2874 2.75 15.9125V3.1625C2.75 2.78758 2.89881 2.42855 3.1636 2.16423L3.16423 2.1636C3.42855 1.89881 3.78758 1.75 4.1625 1.75H4.17437H4.18627H4.19822H4.2102H4.22222H4.23428H4.24638H4.25851H4.27068H4.28288H4.29512H4.3074H4.31972H4.33207H4.34445H4.35687H4.36933H4.38182H4.39434H4.4069H4.41949H4.43212H4.44478H4.45747H4.47019H4.48295H4.49574H4.50857H4.52142H4.53431H4.54723H4.56017H4.57316H4.58617H4.59921H4.61228H4.62538H4.63851H4.65167H4.66487H4.67809H4.69133H4.70461H4.71792H4.73125H4.74461H4.758H4.77142H4.78486H4.79833H4.81183H4.82535H4.8389H4.85248H4.86608H4.87971H4.89336H4.90704H4.92074H4.93447H4.94822H4.96199H4.97579H4.98961H5.00346H5.01732H5.03122H5.04513H5.05907H5.07302H5.087H5.101H5.11503H5.12907H5.14314H5.15722H5.17133H5.18545H5.1996H5.21376H5.22795H5.24215H5.25638H5.27062H5.28488H5.29916H5.31345H5.32777H5.3421H5.35645H5.37081H5.38519H5.39959H5.41401H5.42844H5.44289H5.45735H5.47183H5.48632H5.50083H5.51535H5.52989H5.54444H5.559H5.57358H5.58817H5.60278H5.61739H5.63202H5.64667H5.66132H5.67599H5.69067H5.70536H5.72006H5.73477H5.74949H5.76423H5.77897H5.79372H5.80849H5.82326H5.83804H5.85283H5.86763H5.88244H5.89725H5.91208H5.92691H5.94175H5.9566H5.97145H5.98631H6.00118H6.01606H6.03094H6.04582H6.06071H6.07561H6.09051H6.10542H6.12033H6.13525H6.15017H6.16509H6.18002H6.19495H6.20989H6.22482H6.23976H6.25471H6.26965H6.2846H6.29955H6.3145H6.32945H6.3444H6.35936H6.37431H6.38926H6.40422H6.41917H6.43413H6.44908H6.46403H6.47898H6.49393H6.50888H6.52383H6.53877H6.55371H6.56865H6.58359H6.59852H6.61345H6.62838H6.6433H6.65822H6.67313H6.68804H6.70295H6.71785H6.73274H6.74763H6.76252H6.77739H6.79227H6.80713H6.82199H6.83684H6.85168H6.86652H6.88135H6.89617H6.91098H6.92579H6.94058H6.95537H6.97015H6.98492H6.99968H7.01443H7.02916H7.04389H7.05861H7.07332H7.08802H7.1027H7.11737H7.13203H7.14668H7.16132H7.17595H7.19056H7.20516H7.21974H7.23432H7.24888H7.26342H7.27795H7.29247H7.30697H7.32145H7.33593H7.35038H7.36482H7.37925H7.39365H7.40805H7.42242H7.43678H7.45112H7.46545H7.47975H7.49404H7.50831H7.52256H7.5368H7.55101H7.56521H7.57938H7.59354H7.60768H7.6218H7.63589H7.64997H7.66403H7.67806H7.69207H7.70607H7.72004H7.73399H7.74791H7.76182H7.7757H7.78956H7.80339H7.8172H7.83099H7.84476H7.8585H7.87221H7.8859H7.89957H7.91321H7.92683H7.94042H7.95398H7.96752H7.98103H7.99452H8.00798H8.02141H8.03482H8.04819H8.06154H8.07487H8.08816H8.10142H8.11466H8.12787H8.14105H8.1542H8.16731H8.1804H8.19346H8.20649H8.21949H8.23246H8.24539H8.2583H8.27117H8.28401H8.29682H8.3096H8.32234H8.33505H8.34773H8.36038H8.37299H8.38557H8.39811H8.41062H8.42309H8.43553H8.44794H8.46031H8.47264H8.48494H8.49721H8.50943H8.52162H8.53378H8.54589H8.55797H8.57001H8.58202H8.59398H8.60591H8.6178H8.62965H8.64147H8.65324H8.66497H8.67667H8.68832H8.69994H8.71151H8.72305H8.73454H8.74599H8.7574H8.76877H8.7801H8.79138H8.80263H8.81383H8.82499H8.8361H8.84717H8.8582H8.86918H8.88013H8.89102H8.90187H8.91268H8.92344H8.93416H8.94483H8.95546H8.96604H8.97657H8.98706H8.9975H9.0079H9.01825H9.02855H9.0388H9.049H9.05916H9.06927H9.07933H9.08934H9.0993H9.10921H9.11908H9.12889H9.13866H9.14837H9.15803H9.16764H9.17721H9.18672H9.19617H9.20558H9.21494H9.22424H9.23349H9.24269H9.25183H9.26093H9.26996H9.27895H9.28788H9.29676H9.30558H9.31435H9.32306H9.33172H9.34032H9.34887H9.35736H9.3658H9.37418H9.3825H9.39077H9.39897H9.40713H9.41522H9.42326H9.43124H9.43916H9.44702H9.45482H9.46257H9.47025H9.47788H9.48545H9.49295H9.5004H9.50778H9.51511H9.52237H9.52958H9.53672H9.5438H9.55082H9.55777H9.56467H9.5715H9.57827H9.58497H9.59162H9.5982H9.60471H9.61116H9.61755H9.62387H9.63013H9.63632H9.64245H9.64851H9.65451H9.66044H9.6663H9.6721H9.67783H9.6835H9.68909H9.69462H9.70009H9.70548H9.71081H9.71606H9.72125H9.72637H9.73142H9.73641H9.74132H9.74616H9.75093H9.75564H9.76027H9.76483H9.76932H9.77374H9.77808H9.78236H9.78656H9.7907H9.79475H9.79874H9.80265H9.80649H9.81026H9.81395H9.81757H9.82112H9.82459H9.82798H9.8313H9.83455H9.83772H9.84081H9.84383H9.84678H9.84964H9.85243H9.85514H9.85778H9.86034H9.86282H9.86522H9.86755H9.8698H9.87197H9.87406H9.87607H9.878H9.87985H9.88162H9.88331H9.88493H9.88646H9.88791H9.88928H9.89057H9.89178H9.8929H9.89395H9.89491H9.89579H9.89658H9.8973H9.89793H9.89848H9.89894H9.89932H9.89962H9.89983H9.89996L9.9 1.25V1.75C9.93714 1.75 9.97174 1.76479 9.99622 1.7894L9.99716 1.79034L14.4597 6.25284C14.4858 6.27895 14.4995 6.31358 14.4994 6.34872ZM14.225 6.61392V6.40682L14.0786 6.26037L9.98963 2.17145L9.84318 2.025H9.63608H4.1625C3.8622 2.025 3.57209 2.14374 3.35823 2.35823C3.14374 2.57209 3.025 2.8622 3.025 3.1625V15.9125C3.025 16.2124 3.14339 16.5021 3.35729 16.7158C3.57124 16.9309 3.86176 17.05 4.1625 17.05H13.0875C13.3874 17.05 13.6771 16.9316 13.8908 16.7177C14.1059 16.5038 14.225 16.2132 14.225 15.9125V6.61392Z" fill="#0E82B8" stroke="#0E82B8"/>
<path fill-rule="evenodd" clip-rule="evenodd" d="M9.26328 14.0001V10.1751C9.26328 9.8232 8.97768 9.5376 8.62578 9.5376C8.27388 9.5376 7.98828 9.8232 7.98828 10.1751V14.0001C7.98828 14.352 8.27388 14.6376 8.62578 14.6376C8.97768 14.6376 9.26328 14.352 9.26328 14.0001Z" fill="#0E82B8"/>
<path fill-rule="evenodd" clip-rule="evenodd" d="M7.16407 11.9008L8.62585 10.439L10.0876 11.9008C10.3363 12.1494 10.7404 12.1494 10.9891 11.9008C11.2377 11.6521 11.2377 11.248 10.9891 10.9993L9.07657 9.08685C8.82794 8.83759 8.42377 8.83759 8.17514 9.08685L6.26264 10.9993C6.01402 11.248 6.01402 11.6521 6.26264 11.9008C6.51127 12.1494 6.91544 12.1494 7.16407 11.9008Z" fill="#0E82B8"/>
</svg>
