<svg width="31" height="30" viewBox="0 0 31 30" fill="none" xmlns="http://www.w3.org/2000/svg">
<path d="M6.41152 14.0596V28.4766H2.96387C2.44414 28.4766 2.02344 28.0553 2.02344 27.5361C2.02344 27.017 2.44414 26.5963 2.96387 26.5963H3.27734V16.2533C3.27734 15.9738 3.29023 15.685 3.34883 15.4184C3.40977 15.1412 3.53164 14.8313 3.79062 14.5729C4.04902 14.3145 4.3584 14.1926 4.63555 14.1316C4.90215 14.073 5.19102 14.0596 5.47109 14.0596H6.41152Z" fill="url(#paint0_linear_410_1557)"/>
<path d="M28.9766 27.5362C28.9766 28.0554 28.5559 28.4766 28.0361 28.4766H24.5832V13.7462C24.5832 12.6938 24.517 11.9216 24.3676 11.2413C24.1379 10.1977 23.7055 9.36923 23.0457 8.70946C22.3941 8.05731 21.5416 7.612 20.5121 7.38641C19.833 7.237 19.0602 7.1702 18.0072 7.1702H15.8135V4.0038C15.8135 3.57841 15.8352 3.17001 15.9172 2.82079C15.9963 2.48036 16.1697 2.03505 16.6045 1.7538C17.0469 1.46727 17.5297 1.49891 17.8807 1.57919C18.2346 1.66005 18.6125 1.82645 18.9957 2.02157L24.4795 4.82176C25.1187 5.14813 25.6619 5.42528 26.0873 5.70184C26.5408 5.99657 26.927 6.33055 27.2123 6.80282C27.4977 7.27391 27.6166 7.77255 27.6711 8.31395C27.7227 8.82372 27.7227 9.4413 27.7227 10.1725V26.5964H28.0361C28.5559 26.5964 28.9766 27.0171 28.9766 27.5362Z" fill="url(#paint1_linear_410_1557)"/>
<path d="M22.5366 11.6444C22.4024 11.0344 22.1616 10.4766 21.7192 10.0342C21.2774 9.59185 20.719 9.35103 20.1096 9.21743C19.5102 9.0856 18.8053 9.04517 18.0073 9.04517H12.9928C12.1948 9.04517 11.4899 9.0856 10.8905 9.21743C10.2811 9.35103 9.72273 9.59185 9.28093 10.0342C8.83855 10.4766 8.59773 11.0344 8.46355 11.6444C8.3323 12.2432 8.29187 12.9481 8.29187 13.7461V28.4766H22.7083V13.7461C22.7083 12.9481 22.6678 12.2432 22.5366 11.6444ZM16.754 23.4622H14.2462C13.727 23.4622 13.3063 23.0409 13.3063 22.5217C13.3063 22.0026 13.727 21.5813 14.2462 21.5813H16.754C17.2731 21.5813 17.6938 22.0026 17.6938 22.5217C17.6938 23.0409 17.2731 23.4622 16.754 23.4622ZM16.754 19.701H14.2462C13.727 19.701 13.3063 19.2803 13.3063 18.7606C13.3063 18.2409 13.727 17.8208 14.2462 17.8208H16.754C17.2731 17.8208 17.6938 18.2415 17.6938 18.7606C17.6938 19.2797 17.2731 19.701 16.754 19.701ZM16.754 15.9405H14.2462C13.727 15.9405 13.3063 15.5192 13.3063 15C13.3063 14.4809 13.727 14.0596 14.2462 14.0596H16.754C17.2731 14.0596 17.6938 14.4809 17.6938 15C17.6938 15.5192 17.2731 15.9405 16.754 15.9405Z" fill="url(#paint2_linear_410_1557)"/>
<defs>
<linearGradient id="paint0_linear_410_1557" x1="2.02344" y1="21.2681" x2="6.41152" y2="21.2681" gradientUnits="userSpaceOnUse">
<stop stop-color="#44AFE0"/>
<stop offset="1" stop-color="#52DEE6"/>
</linearGradient>
<linearGradient id="paint1_linear_410_1557" x1="15.8135" y1="15" x2="28.9766" y2="15" gradientUnits="userSpaceOnUse">
<stop stop-color="#44AFE0"/>
<stop offset="1" stop-color="#52DEE6"/>
</linearGradient>
<linearGradient id="paint2_linear_410_1557" x1="8.29187" y1="18.7609" x2="22.7083" y2="18.7609" gradientUnits="userSpaceOnUse">
<stop stop-color="#44AFE0"/>
<stop offset="1" stop-color="#52DEE6"/>
</linearGradient>
</defs>
</svg>
