<svg width="25" height="24" viewBox="0 0 25 24" fill="none" xmlns="http://www.w3.org/2000/svg">
<path fill-rule="evenodd" clip-rule="evenodd" d="M8.82323 7.38695C9.30098 7.28199 9.86327 7.24976 10.5 7.24976H14.5C15.1367 7.24976 15.699 7.28199 16.1768 7.38695C16.663 7.49376 17.1083 7.68588 17.4611 8.03868C17.8139 8.39148 18.006 8.83675 18.1128 9.32299C18.2178 9.80074 18.25 10.363 18.25 10.9998V21.9998C18.25 22.414 17.9142 22.7498 17.5 22.7498H7.5C7.08579 22.7498 6.75 22.414 6.75 21.9998V10.9998C6.75 10.363 6.78223 9.80074 6.88719 9.32299C6.99401 8.83675 7.18612 8.39148 7.53892 8.03868C7.89172 7.68588 8.33699 7.49376 8.82323 7.38695ZM8.35225 9.64484C8.28252 9.96227 8.25 10.3955 8.25 10.9998V21.2498H16.75V10.9998C16.75 10.3955 16.7175 9.96227 16.6477 9.64484C16.5799 9.3359 16.4874 9.18629 16.4004 9.09934C16.3135 9.01239 16.1639 8.91988 15.8549 8.85201C15.5375 8.78228 15.1043 8.74976 14.5 8.74976H10.5C9.89573 8.74976 9.46252 8.78228 9.14508 8.85201C8.83614 8.91988 8.68653 9.01239 8.59958 9.09934C8.51263 9.18629 8.42012 9.3359 8.35225 9.64484Z" fill="#688390"/>
<path fill-rule="evenodd" clip-rule="evenodd" d="M10.75 12C10.75 11.5858 11.0858 11.25 11.5 11.25H13.5C13.9142 11.25 14.25 11.5858 14.25 12C14.25 12.4142 13.9142 12.75 13.5 12.75H11.5C11.0858 12.75 10.75 12.4142 10.75 12ZM10.75 15C10.75 14.5858 11.0858 14.25 11.5 14.25H13.5C13.9142 14.25 14.25 14.5858 14.25 15C14.25 15.4142 13.9142 15.75 13.5 15.75H11.5C11.0858 15.75 10.75 15.4142 10.75 15ZM10.75 18C10.75 17.5858 11.0858 17.25 11.5 17.25H13.5C13.9142 17.25 14.25 17.5858 14.25 18C14.25 18.4142 13.9142 18.75 13.5 18.75H11.5C11.0858 18.75 10.75 18.4142 10.75 18Z" fill="#688390"/>
<path fill-rule="evenodd" clip-rule="evenodd" d="M14.3988 1.29444C14.6811 1.35904 14.983 1.49138 15.2883 1.64724L19.663 3.88092C20.1727 4.14117 20.6058 4.36226 20.9451 4.58277C21.307 4.81788 21.6149 5.08433 21.8429 5.46118C22.0704 5.83709 22.1651 6.23465 22.2088 6.66642C22.25 7.07319 22.25 7.56596 22.25 8.1491V21.9999C22.25 22.4141 21.9142 22.7499 21.5 22.7499C21.0858 22.7499 20.75 22.4141 20.75 21.9999V8.18549C20.75 7.55626 20.7491 7.13984 20.7165 6.81752C20.6855 6.51175 20.6309 6.35547 20.5597 6.23784C20.489 6.12115 20.3786 6.0035 20.1279 5.84057C19.862 5.66779 19.4995 5.48168 18.9478 5.19997L14.6062 2.98318C14.4665 2.91187 14.3541 2.86034 14.2646 2.82395C14.2555 2.92677 14.25 3.05932 14.25 3.22858V7.70335C14.25 8.11756 13.9142 8.45335 13.5 8.45335C13.0858 8.45335 12.75 8.11756 12.75 7.70335V3.22858C12.75 2.88924 12.7675 2.5634 12.8326 2.28475C12.896 2.01323 13.0344 1.65791 13.3809 1.43366C13.7338 1.20527 14.1189 1.23042 14.3988 1.29444ZM14.0261 2.74966C14.0239 2.74959 14.0227 2.74942 14.0227 2.74942L14.0261 2.74966Z" fill="#688390"/>
<path fill-rule="evenodd" clip-rule="evenodd" d="M4.25832 12.7583C4.25336 12.816 4.25 12.8942 4.25 13V22C4.25 22.4142 3.91421 22.75 3.5 22.75C3.08579 22.75 2.75 22.4142 2.75 22V13C2.75 12.7769 2.76065 12.5465 2.80737 12.3338C2.85596 12.1126 2.9532 11.8656 3.15942 11.6594C3.36564 11.4532 3.61261 11.3559 3.8338 11.3073C4.04648 11.2606 4.27694 11.25 4.5 11.25H7.5C7.91421 11.25 8.25 11.5858 8.25 12C8.25 12.4142 7.91421 12.75 7.5 12.75H4.5C4.39428 12.75 4.31601 12.7533 4.25832 12.7583Z" fill="#688390"/>
<path fill-rule="evenodd" clip-rule="evenodd" d="M1.75 22C1.75 21.5858 2.08579 21.25 2.5 21.25H22.5C22.9142 21.25 23.25 21.5858 23.25 22C23.25 22.4142 22.9142 22.75 22.5 22.75H2.5C2.08579 22.75 1.75 22.4142 1.75 22Z" fill="#688390"/>
</svg>
