<svg width="16" height="16" viewBox="0 0 16 16" fill="none" xmlns="http://www.w3.org/2000/svg">
<g clip-path="url(#clip0_688_2619)">
<path d="M12.5 0C10.57 0 9 1.57 9 3.5C9 5.296 11.808 8.477 12.128 8.834C12.223 8.939 12.358 9 12.5 9C12.642 9 12.777 8.939 12.872 8.834C13.192 8.477 16 5.296 16 3.5C16 1.57 14.43 0 12.5 0ZM12.5 5C11.672 5 11 4.328 11 3.5C11 2.672 11.672 2 12.5 2C13.328 2 14 2.672 14 3.5C14 4.328 13.328 5 12.5 5Z" fill="#53B8E6"/>
<path d="M0.314 5.874C0.125 5.95 0 6.134 0 6.339V15.5C0 15.666 0.083 15.821 0.22 15.914C0.304 15.97 0.401 16 0.5 16C0.563 16 0.626 15.988 0.686 15.964L5 14.238V4L0.314 5.874Z" fill="#53B8E6"/>
<path d="M13.616 9.50204C13.332 9.81804 12.925 10 12.5 10C12.075 10 11.668 9.81804 11.384 9.50204C11.282 9.38904 11.151 9.24004 11 9.06304V16L15.686 14.126C15.876 14.051 16 13.866 16 13.662V6.31104C15.181 7.69804 14.086 8.97804 13.616 9.50204Z" fill="#53B8E6"/>
<path d="M8.315 4.926L6 4V14.238L10 15.838V7.808C9.361 6.947 8.694 5.91 8.315 4.926Z" fill="#53B8E6"/>
</g>
<defs>
<clipPath id="clip0_688_2619">
<rect width="16" height="16" fill="white"/>
</clipPath>
</defs>
</svg>
