<svg width="22" height="22" viewBox="0 0 22 22" fill="none" xmlns="http://www.w3.org/2000/svg">
<path fill-rule="evenodd" clip-rule="evenodd" d="M15.5833 14.6667V16.5001C15.5833 16.7604 15.7309 16.9987 15.9638 17.1152L16.8804 17.5735C17.2205 17.7431 17.633 17.6056 17.8035 17.2655C17.9731 16.9263 17.8347 16.5129 17.4955 16.3433L16.9583 16.0747V14.6667C16.9583 14.2872 16.6503 13.9792 16.2708 13.9792C15.8913 13.9792 15.5833 14.2872 15.5833 14.6667Z" fill="#2198CE"/>
<path fill-rule="evenodd" clip-rule="evenodd" d="M20.625 16.5C20.625 14.0965 18.6743 12.1459 16.2708 12.1459C13.8673 12.1459 11.9167 14.0965 11.9167 16.5C11.9167 18.9035 13.8673 20.8542 16.2708 20.8542C18.6743 20.8542 20.625 18.9035 20.625 16.5ZM19.25 16.5C19.25 18.1445 17.9153 19.4792 16.2708 19.4792C14.6263 19.4792 13.2917 18.1445 13.2917 16.5C13.2917 14.8555 14.6263 13.5209 16.2708 13.5209C17.9153 13.5209 19.25 14.8555 19.25 16.5Z" fill="#2198CE"/>
<path fill-rule="evenodd" clip-rule="evenodd" d="M11.6875 19.4792H3.89583C3.5915 19.4792 3.30092 19.3582 3.0855 19.1437C2.871 18.9283 2.75 18.6377 2.75 18.3334V3.66671C2.75 3.36237 2.871 3.07179 3.0855 2.85637C3.30092 2.64187 3.5915 2.52087 3.89583 2.52087H10.4161C10.4738 2.52087 10.5288 2.54196 10.571 2.58046L15.0498 6.65229C15.0975 6.69629 15.125 6.75771 15.125 6.82187V11C15.125 11.3795 15.433 11.6875 15.8125 11.6875C16.192 11.6875 16.5 11.3795 16.5 11C16.5 11 16.5 7.94296 16.5 6.82187C16.5 6.36996 16.3093 5.93912 15.9748 5.63479C15.0663 4.80887 12.3521 2.34212 11.4959 1.56296C11.1998 1.29437 10.8158 1.14587 10.4161 1.14587C9.33258 1.14587 6.00967 1.14587 3.89583 1.14587C3.22758 1.14587 2.58592 1.41171 2.11292 1.88379C1.64083 2.35679 1.375 2.99846 1.375 3.66671V18.3334C1.375 19.0016 1.64083 19.6433 2.11292 20.1163C2.58592 20.5884 3.22758 20.8542 3.89583 20.8542H11.6875C12.067 20.8542 12.375 20.5462 12.375 20.1667C12.375 19.7872 12.067 19.4792 11.6875 19.4792Z" fill="#2198CE"/>
<path fill-rule="evenodd" clip-rule="evenodd" d="M11.4583 5.72925V2.29175C11.4583 1.91225 11.1503 1.60425 10.7708 1.60425C10.3913 1.60425 10.0833 1.91225 10.0833 2.29175V5.95842C10.0833 6.26275 10.2043 6.55333 10.4188 6.76875C10.6343 6.98325 10.9258 7.10425 11.2292 7.10425H15.3542C15.7337 7.10425 16.0417 6.79625 16.0417 6.41675C16.0417 6.03725 15.7337 5.72925 15.3542 5.72925H11.4583Z" fill="#2198CE"/>
<path fill-rule="evenodd" clip-rule="evenodd" d="M5.27084 8.9375H8.47918C8.85868 8.9375 9.16668 8.6295 9.16668 8.25C9.16668 7.8705 8.85868 7.5625 8.47918 7.5625H5.27084C4.89134 7.5625 4.58334 7.8705 4.58334 8.25C4.58334 8.6295 4.89134 8.9375 5.27084 8.9375Z" fill="#2198CE"/>
<path fill-rule="evenodd" clip-rule="evenodd" d="M5.27084 12.1459H11.2292C11.6087 12.1459 11.9167 11.8379 11.9167 11.4584C11.9167 11.0789 11.6087 10.7709 11.2292 10.7709H5.27084C4.89134 10.7709 4.58334 11.0789 4.58334 11.4584C4.58334 11.8379 4.89134 12.1459 5.27084 12.1459Z" fill="#2198CE"/>
<path fill-rule="evenodd" clip-rule="evenodd" d="M5.27084 15.3542H8.93751C9.31701 15.3542 9.62501 15.0462 9.62501 14.6667C9.62501 14.2872 9.31701 13.9792 8.93751 13.9792H5.27084C4.89134 13.9792 4.58334 14.2872 4.58334 14.6667C4.58334 15.0462 4.89134 15.3542 5.27084 15.3542Z" fill="#2198CE"/>
</svg>
