<svg width="31" height="30" viewBox="0 0 31 30" fill="none" xmlns="http://www.w3.org/2000/svg">
<path fill-rule="evenodd" clip-rule="evenodd" d="M13.0295 3.43298C14.5189 2.41394 16.4811 2.41394 17.9705 3.43298L26.0955 8.99219C27.2874 9.80768 28 11.1588 28 12.6029V23.1249C28 25.5412 26.0412 27.4999 23.625 27.4999H7.375C4.95875 27.4999 3 25.5412 3 23.1249V12.6029C3 11.1588 3.71265 9.80768 4.90451 8.99219L13.0295 3.43298ZM12.375 21.8749C12.0298 21.8749 11.75 22.1548 11.75 22.4999C11.75 22.8451 12.0298 23.1249 12.375 23.1249H18.625C18.9701 23.1249 19.25 22.8451 19.25 22.4999C19.25 22.1548 18.9701 21.8749 18.625 21.8749H12.375Z" fill="url(#paint0_linear_410_1474)"/>
<defs>
<linearGradient id="paint0_linear_410_1474" x1="3" y1="15.0843" x2="28" y2="15.0843" gradientUnits="userSpaceOnUse">
<stop stop-color="#44AFE0"/>
<stop offset="1" stop-color="#52DEE6"/>
</linearGradient>
</defs>
</svg>
