<svg width="25" height="24" viewBox="0 0 25 24" fill="none" xmlns="http://www.w3.org/2000/svg">
<path d="M9.81903 19.2789C9.37116 19.2789 9.00623 18.9176 9.00623 18.4731C9.00623 18.0285 9.37066 17.6672 9.81903 17.6672H15.1809C15.6288 17.6672 15.9937 18.0285 15.9937 18.4731C15.9937 18.9176 15.6293 19.2789 15.1809 19.2789H9.81903Z" fill="#688390"/>
<path fill-rule="evenodd" clip-rule="evenodd" d="M5.52984 23C3.30807 23 1.5 21.2079 1.5 19.0048V10.4506C1.5 9.22022 2.05846 8.07752 3.03262 7.31505L10.003 1.85965C10.7108 1.30499 11.598 1 12.4997 1C13.4015 1 14.2887 1.30499 14.997 1.85965L21.9674 7.31505C22.9415 8.07752 23.5 9.22022 23.5 10.4506V19.0048C23.5 21.2074 21.6924 23 19.4702 23H5.52984ZM12.4997 2.61115C11.9614 2.61115 11.4326 2.79305 11.0099 3.12395L4.03995 8.57985C3.45887 9.03484 3.12561 9.71658 3.12561 10.4506V19.0048C3.12561 20.3194 4.20432 21.3883 5.52984 21.3883H19.4702C20.7962 21.3883 21.8744 20.3189 21.8744 19.0048V10.4506C21.8744 9.71658 21.5411 9.03484 20.9601 8.57985L13.9896 3.12395C13.5669 2.79305 13.0381 2.61115 12.4997 2.61115Z" fill="#688390"/>
</svg>
