<svg width="20" height="20" viewBox="0 0 20 20" fill="none" xmlns="http://www.w3.org/2000/svg">
<path d="M13.5061 16.3391C13.1686 16.4703 12.0999 16.7828 11.6124 16.5047C11.5451 16.4656 11.4883 16.4108 11.447 16.3449C11.4056 16.2791 11.3808 16.2041 11.3749 16.1266C11.2217 15.1516 11.9499 12.8984 12.3436 11.6891C12.4749 11.2859 12.5686 10.9922 12.6061 10.8141C12.8905 9.49844 12.7499 8.49219 12.1874 7.82344C11.5106 7.01885 10.3098 6.86231 9.32487 7.00782C8.32329 7.14131 7.34452 7.41045 6.4155 7.80782C6.37233 7.82869 6.33461 7.85933 6.30532 7.89729C6.27604 7.93526 6.25598 7.97951 6.24675 8.02657L6.04362 8.99844C6.03265 9.0531 6.03642 9.10969 6.05454 9.16241C6.07266 9.21513 6.10449 9.26208 6.14675 9.29844C6.18955 9.334 6.24083 9.35787 6.29559 9.36772C6.35035 9.37758 6.40673 9.37309 6.45925 9.35469C6.83112 9.21719 7.99362 8.90782 8.40925 9.28907C8.64362 9.50469 8.578 9.96094 8.48426 10.3016C8.38739 10.6578 8.27175 11.0422 8.15301 11.4453C7.38426 14.0609 6.50926 17.0266 7.89676 17.9516C8.55323 18.4528 9.35225 18.7319 10.178 18.7484C10.9905 18.7484 11.9936 18.4922 13.4374 17.9078C13.4809 17.8909 13.5201 17.8644 13.552 17.8303C13.5839 17.7963 13.6077 17.7555 13.6218 17.7109L13.9186 16.7203C13.9355 16.6638 13.9362 16.6038 13.9207 16.5469C13.9053 16.4901 13.8742 16.4386 13.8311 16.3984C13.788 16.359 13.7347 16.3325 13.6772 16.3219C13.6197 16.3114 13.5604 16.3174 13.5061 16.3391Z" fill="#3BA5D7"/>
<path d="M11.6999 1.25159C11.2529 1.2519 10.816 1.38472 10.4444 1.63327C10.0728 1.88183 9.78329 2.23495 9.61236 2.64802C9.44143 3.06109 9.39678 3.51556 9.48407 3.95399C9.57136 4.39243 9.78666 4.79514 10.1028 5.11125C10.4189 5.42735 10.8216 5.64265 11.26 5.72994C11.6985 5.81723 12.1529 5.77259 12.566 5.60166C12.9791 5.43073 13.3322 5.14118 13.5807 4.76961C13.8293 4.39804 13.9621 3.96112 13.9624 3.51409C13.9622 2.9141 13.7238 2.33874 13.2995 1.91448C12.8753 1.49022 12.2999 1.25179 11.6999 1.25159Z" fill="#3BA5D7"/>
</svg>
