<svg width="15" height="16" viewBox="0 0 15 16" fill="none" xmlns="http://www.w3.org/2000/svg">
<g clip-path="url(#clip0_440_9390)">
<path d="M12.2426 14.3511H2.53674V15.454H12.2426V14.3511Z" fill="#906D0F"/>
<path d="M9.13604 5.47241H5.73532C5.43072 5.47241 5.18384 5.7193 5.18384 6.0239C5.18384 6.3285 5.43072 6.57538 5.73532 6.57538H9.13604C9.44064 6.57538 9.68753 6.3285 9.68753 6.0239C9.68753 5.7193 9.44064 5.47241 9.13604 5.47241Z" fill="#906D0F"/>
<path d="M11.7096 8.0459H5.73532C5.43072 8.0459 5.18384 8.29278 5.18384 8.59738C5.18384 8.90198 5.43072 9.14887 5.73532 9.14887H11.7096C12.0142 9.14887 12.2611 8.90198 12.2611 8.59738C12.2611 8.29278 12.0142 8.0459 11.7096 8.0459Z" fill="#906D0F"/>
<path d="M14.675 0.613062C14.477 0.524087 14.2456 0.559214 14.0831 0.702769L12.5388 2.06894L10.9927 0.686392C10.7833 0.499067 10.4667 0.499067 10.2574 0.686392L8.71324 2.06727L7.16895 0.686392C6.95956 0.499067 6.64321 0.499067 6.43383 0.686392L4.88769 2.06894L3.34339 0.702769C3.18108 0.55939 2.94946 0.524263 2.75147 0.613062C2.55369 0.702212 2.42648 0.898911 2.42648 1.11583V10.932H0.551484C0.246885 10.932 0 11.1789 0 11.4835V12.8254C0 14.2748 1.17923 15.454 2.62866 15.454V14.3511C1.78731 14.3511 1.10294 13.6665 1.10294 12.8254V12.0349H9.74265V12.8254C9.74265 14.2748 10.9219 15.4541 12.3713 15.4541C13.8207 15.4541 15 14.2748 15 12.8254V1.1158C15 0.898882 14.8728 0.702212 14.675 0.613062ZM13.8971 12.8254C13.8971 13.6665 13.2125 14.3511 12.3713 14.3511C11.5302 14.3511 10.8456 13.6665 10.8456 12.8254V11.4835C10.8456 11.1789 10.5987 10.932 10.2941 10.932H3.52942V2.33988L4.52446 3.22022C4.73402 3.40552 5.04908 3.40458 5.25735 3.2182L6.80147 1.83732L8.3456 3.21802C8.55498 3.40535 8.8715 3.40535 9.08089 3.21802L10.6252 1.83714L12.1693 3.21802C12.3778 3.40441 12.6928 3.40514 12.9022 3.22004L13.8971 2.33991V12.8254Z" fill="#906D0F"/>
</g>
<defs>
<clipPath id="clip0_440_9390">
<rect width="15" height="15" fill="white" transform="translate(0 0.5)"/>
</clipPath>
</defs>
</svg>
