<svg width="24" height="24" viewBox="0 0 24 24" fill="none" xmlns="http://www.w3.org/2000/svg">
<g clip-path="url(#clip0_691_10292)">
<path d="M12 24C18.6274 24 24 18.6274 24 12C24 5.37258 18.6274 0 12 0C5.37258 0 0 5.37258 0 12C0 18.6274 5.37258 24 12 24Z" fill="#F0F0F0"/>
<path d="M5.66649 16.6149L5.06738 17.0143L6.13241 18.6119L6.73152 18.2125L5.66649 16.6149Z" fill="black"/>
<path d="M5.18676 13.8648L4.58765 14.2642L7.0727 17.992L7.67182 17.5926L5.18676 13.8648Z" fill="black"/>
<path d="M4.2661 14.4436L3.66699 14.843L4.73202 16.4406L5.33113 16.0412L4.2661 14.4436Z" fill="black"/>
<path d="M3.32543 15.0642L2.72632 15.4636L5.21137 19.1914L5.81049 18.792L3.32543 15.0642Z" fill="black"/>
<path d="M17.8479 5.46481L17.2488 5.8642L19.7338 9.592L20.3329 9.19262L17.8479 5.46481Z" fill="black"/>
<path d="M16.927 6.04404L16.3279 6.44342L17.3929 8.04105L17.992 7.64167L16.927 6.04404Z" fill="black"/>
<path d="M18.2817 8.14816L17.6826 8.54755L18.7476 10.145L19.3467 9.7456L18.2817 8.14816Z" fill="black"/>
<path d="M18.7881 4.84451L18.189 5.2439L19.254 6.84153L19.8531 6.44214L18.7881 4.84451Z" fill="black"/>
<path d="M20.2114 6.90445L19.6123 7.30383L20.6773 8.90147L21.2764 8.50208L20.2114 6.90445Z" fill="black"/>
<path d="M18.3057 16.5752L17.2407 18.1728L17.8398 18.5722L18.9049 16.9745L18.3057 16.5752Z" fill="black"/>
<path d="M19.7425 14.4526L18.6775 16.0502L19.2766 16.4496L20.3416 14.852L19.7425 14.4526Z" fill="black"/>
<path d="M19.2694 17.1757L18.2043 18.7733L18.8035 19.1727L19.8685 17.5751L19.2694 17.1757Z" fill="black"/>
<path d="M20.6615 15.1215L19.5964 16.7191L20.1955 17.1185L21.2606 15.5209L20.6615 15.1215Z" fill="black"/>
<path d="M17.3426 15.9743L16.2776 17.572L16.8767 17.9713L17.9417 16.3737L17.3426 15.9743Z" fill="black"/>
<path d="M18.7786 13.8521L17.7136 15.4497L18.3127 15.8491L19.3778 14.2515L18.7786 13.8521Z" fill="black"/>
<path d="M6.15303 5.42295L3.66797 9.15076L4.26708 9.55014L6.75214 5.82233L6.15303 5.42295Z" fill="black"/>
<path d="M7.11738 6.025L4.63232 9.75281L5.23144 10.1522L7.71649 6.42438L7.11738 6.025Z" fill="black"/>
<path d="M5.23384 4.75596L2.74878 8.48376L3.34789 8.88315L5.83295 5.15534L5.23384 4.75596Z" fill="black"/>
<path d="M12 16.48C14.4743 16.48 16.48 14.4743 16.48 12C16.48 9.52578 14.4743 7.52002 12 7.52002C9.52578 7.52002 7.52002 9.52578 7.52002 12C7.52002 14.4743 9.52578 16.48 12 16.48Z" fill="#ED1C24"/>
<path d="M15.1201 12C14.2401 11.12 12.8801 11.12 12.0001 12C11.1201 12.88 9.76009 12.88 8.88009 12C8.08009 11.2 8.00008 9.91998 8.72008 9.03998C7.04008 10.88 7.20009 13.68 9.04009 15.36C10.8001 16.96 13.5201 16.88 15.2001 15.2C16.0001 14.24 16.0001 12.88 15.1201 12Z" fill="#0071BC"/>
</g>
<defs>
<clipPath id="clip0_691_10292">
<rect width="24" height="24" fill="white"/>
</clipPath>
</defs>
</svg>
