<svg width="16" height="17" viewBox="0 0 16 17" fill="none" xmlns="http://www.w3.org/2000/svg">
<g clip-path="url(#clip0_691_10221)">
<path d="M8.61198 11.5601L6.1639 14.0082C6.1639 14.0082 6.1639 14.0083 6.16384 14.0083C6.16384 14.0083 6.16384 14.0083 6.16378 14.0083C5.15143 15.0207 3.50411 15.0208 2.49164 14.0083C2.00116 13.5179 1.73111 12.8657 1.73111 12.1722C1.73111 11.4787 2.00116 10.8267 2.49147 10.3363C2.49153 10.3362 2.49158 10.3361 2.49164 10.3361L4.93972 7.88795C5.27769 7.54992 5.27769 7.00185 4.93966 6.66388C4.60169 6.32591 4.05362 6.32591 3.71559 6.66388L1.26752 9.11201C1.26734 9.11218 1.26717 9.11242 1.267 9.11259C0.449973 9.9299 0 11.0165 0 12.1722C0 13.3282 0.450146 14.415 1.26758 15.2324C2.11132 16.0761 3.21952 16.498 4.32777 16.498C5.43603 16.498 6.54428 16.0761 7.38791 15.2324C7.38797 15.2324 7.38797 15.2323 7.38797 15.2323L9.83604 12.7842C10.174 12.4462 10.174 11.8981 9.83599 11.5601C9.49807 11.2221 8.95006 11.2221 8.61198 11.5601Z" fill="#3BA5D7"/>
<path d="M15.9999 4.82778C15.9999 3.6718 15.5497 2.58501 14.7323 1.76758C13.0448 0.0802113 10.2992 0.0802691 8.61193 1.76758C8.61187 1.7677 8.61175 1.76775 8.6117 1.76787L6.16368 4.21583C5.82565 4.5538 5.82565 5.10193 6.16368 5.4399C6.33275 5.60897 6.55422 5.69345 6.77574 5.69345C6.99721 5.69345 7.21879 5.60891 7.38774 5.4399L9.83576 2.99194C9.83582 2.99182 9.83594 2.99176 9.83605 2.99165C10.8484 1.9793 12.4957 1.97924 13.5082 2.99165C13.9986 3.48213 14.2688 4.13424 14.2688 4.82778C14.2688 5.52126 13.9987 6.17325 13.5084 6.66373L13.5082 6.66391L11.0601 9.11204C10.7221 9.45001 10.7221 9.99808 11.0602 10.3361C11.2292 10.5051 11.4507 10.5897 11.6722 10.5897C11.8937 10.5897 12.1152 10.5051 12.2842 10.3361L14.7323 7.88797C14.7325 7.8878 14.7327 7.88757 14.7328 7.88739C15.5499 7.07008 15.9999 5.98346 15.9999 4.82778Z" fill="#3BA5D7"/>
<path d="M4.9398 11.5601C5.10881 11.7291 5.33034 11.8136 5.5518 11.8136C5.77333 11.8136 5.99485 11.7291 6.16387 11.5601L11.0601 6.66382C11.3982 6.32585 11.3982 5.77778 11.0601 5.43976C10.7222 5.10179 10.1741 5.10179 9.83607 5.43976L4.9398 10.336C4.60177 10.6741 4.60177 11.2221 4.9398 11.5601Z" fill="#3BA5D7"/>
</g>
<defs>
<clipPath id="clip0_691_10221">
<rect width="16" height="16" fill="white" transform="translate(0 0.5)"/>
</clipPath>
</defs>
</svg>
