<svg width="31" height="30" viewBox="0 0 31 30" fill="none" xmlns="http://www.w3.org/2000/svg">
<path d="M20.7375 2.5H10.2625C5.7125 2.5 3 5.2125 3 9.7625V20.2375C3 24.7875 5.7125 27.5 10.2625 27.5H20.7375C25.2875 27.5 28 24.7875 28 20.2375V9.7625C28 5.2125 25.2875 2.5 20.7375 2.5ZM12.9625 18.625L10.15 21.4375C9.9625 21.625 9.725 21.7125 9.4875 21.7125C9.25 21.7125 9 21.625 8.825 21.4375L7.8875 20.5C7.5125 20.1375 7.5125 19.5375 7.8875 19.175C8.25 18.8125 8.8375 18.8125 9.2125 19.175L9.4875 19.45L11.6375 17.3C12 16.9375 12.5875 16.9375 12.9625 17.3C13.325 17.6625 13.325 18.2625 12.9625 18.625ZM12.9625 9.875L10.15 12.6875C9.9625 12.875 9.725 12.9625 9.4875 12.9625C9.25 12.9625 9 12.875 8.825 12.6875L7.8875 11.75C7.5125 11.3875 7.5125 10.7875 7.8875 10.425C8.25 10.0625 8.8375 10.0625 9.2125 10.425L9.4875 10.7L11.6375 8.55C12 8.1875 12.5875 8.1875 12.9625 8.55C13.325 8.9125 13.325 9.5125 12.9625 9.875ZM22.45 20.775H15.8875C15.375 20.775 14.95 20.35 14.95 19.8375C14.95 19.325 15.375 18.9 15.8875 18.9H22.45C22.975 18.9 23.3875 19.325 23.3875 19.8375C23.3875 20.35 22.975 20.775 22.45 20.775ZM22.45 12.025H15.8875C15.375 12.025 14.95 11.6 14.95 11.0875C14.95 10.575 15.375 10.15 15.8875 10.15H22.45C22.975 10.15 23.3875 10.575 23.3875 11.0875C23.3875 11.6 22.975 12.025 22.45 12.025Z" fill="url(#paint0_linear_410_1506)"/>
<defs>
<linearGradient id="paint0_linear_410_1506" x1="3" y1="15" x2="28" y2="15" gradientUnits="userSpaceOnUse">
<stop stop-color="#44AFE0"/>
<stop offset="1" stop-color="#52DEE6"/>
</linearGradient>
</defs>
</svg>
