<svg width="25" height="24" viewBox="0 0 25 24" fill="none" xmlns="http://www.w3.org/2000/svg">
<path d="M18.1201 9.62012H12.8701C12.4601 9.62012 12.1201 9.28012 12.1201 8.87012C12.1201 8.46012 12.4601 8.12012 12.8701 8.12012H18.1201C18.5301 8.12012 18.8701 8.46012 18.8701 8.87012C18.8701 9.28012 18.5401 9.62012 18.1201 9.62012Z" fill="#688390"/>
<path d="M7.61957 10.3801C7.42957 10.3801 7.23957 10.3101 7.08957 10.1601L6.33957 9.41007C6.04957 9.12007 6.04957 8.64007 6.33957 8.35007C6.62957 8.06007 7.10957 8.06007 7.39957 8.35007L7.61957 8.57007L9.33957 6.85007C9.62957 6.56007 10.1096 6.56007 10.3996 6.85007C10.6896 7.14007 10.6896 7.62007 10.3996 7.91007L8.14957 10.1601C8.00957 10.3001 7.81957 10.3801 7.61957 10.3801Z" fill="#688390"/>
<path d="M18.1201 16.6201H12.8701C12.4601 16.6201 12.1201 16.2801 12.1201 15.8701C12.1201 15.4601 12.4601 15.1201 12.8701 15.1201H18.1201C18.5301 15.1201 18.8701 15.4601 18.8701 15.8701C18.8701 16.2801 18.5401 16.6201 18.1201 16.6201Z" fill="#688390"/>
<path d="M7.61957 17.3801C7.42957 17.3801 7.23957 17.3101 7.08957 17.1601L6.33957 16.4101C6.04957 16.1201 6.04957 15.6401 6.33957 15.3501C6.62957 15.0601 7.10957 15.0601 7.39957 15.3501L7.61957 15.5701L9.33957 13.8501C9.62957 13.5601 10.1096 13.5601 10.3996 13.8501C10.6896 14.1401 10.6896 14.6201 10.3996 14.9101L8.14957 17.1601C8.00957 17.3001 7.81957 17.3801 7.61957 17.3801Z" fill="#688390"/>
<path d="M15.5 22.75H9.5C4.07 22.75 1.75 20.43 1.75 15V9C1.75 3.57 4.07 1.25 9.5 1.25H15.5C20.93 1.25 23.25 3.57 23.25 9V15C23.25 20.43 20.93 22.75 15.5 22.75ZM9.5 2.75C4.89 2.75 3.25 4.39 3.25 9V15C3.25 19.61 4.89 21.25 9.5 21.25H15.5C20.11 21.25 21.75 19.61 21.75 15V9C21.75 4.39 20.11 2.75 15.5 2.75H9.5Z" fill="#688390"/>
</svg>
