<svg width="24" height="24" viewBox="0 0 24 24" fill="none" xmlns="http://www.w3.org/2000/svg">
<path fill-rule="evenodd" clip-rule="evenodd" d="M8.67891 22.7812C4.56516 22.7812 1.21875 19.4348 1.21875 15.3211V8.67891C1.21875 4.56562 4.56516 1.21875 8.67891 1.21875C10.5173 1.21875 12.2836 1.89328 13.6528 3.11859C13.9889 3.41953 14.0175 3.93797 13.7166 4.27406C13.5614 4.4475 13.3392 4.54641 13.1067 4.54641C12.9052 4.54641 12.7116 4.47234 12.5616 4.33781C11.4933 3.38156 10.1147 2.85516 8.67938 2.85516C5.46797 2.85516 2.85562 5.4675 2.85562 8.67891V15.3211C2.85562 18.5325 5.46797 21.1448 8.67938 21.1448C10.1147 21.1448 11.4933 20.6184 12.5616 19.6622C12.712 19.5277 12.9056 19.4536 13.1067 19.4536C13.3392 19.4536 13.5619 19.553 13.7166 19.7259C13.8623 19.8886 13.9359 20.0986 13.9237 20.317C13.9116 20.535 13.8155 20.7356 13.6523 20.8814C12.2836 22.1067 10.5173 22.7812 8.67891 22.7812ZM18.8517 16.1395C18.5911 16.1395 18.3525 16.02 18.1964 15.8123C18.0652 15.6375 18.0098 15.4219 18.0408 15.2058C18.0717 14.9892 18.1852 14.798 18.36 14.6667C18.9122 14.2528 19.4423 13.7972 19.9364 13.3134L20.4417 12.8184H7.57219C7.12078 12.8184 6.75375 12.4514 6.75375 12C6.75375 11.5486 7.12078 11.1816 7.57219 11.1816H20.4417L19.9364 10.6866C19.4428 10.2028 18.9127 9.74766 18.36 9.33328C18.1852 9.20203 18.0717 9.01078 18.0408 8.79422C18.0098 8.57766 18.0652 8.3625 18.1964 8.18766C18.3525 7.97953 18.5911 7.86047 18.8517 7.86047C19.0294 7.86047 19.1991 7.91719 19.342 8.02406C20.4867 8.88281 21.5241 9.88172 22.425 10.9936C22.6552 11.2777 22.7817 11.6348 22.7817 11.9995C22.7817 12.3642 22.6552 12.7219 22.425 13.0055C21.5241 14.1173 20.4867 15.1162 19.342 15.975C19.1991 16.0819 19.0298 16.1386 18.8517 16.1386V16.1395Z" fill="#3BA5D7"/>
</svg>
