<svg width="16" height="16" viewBox="0 0 16 16" fill="none" xmlns="http://www.w3.org/2000/svg">
<g clip-path="url(#clip0_688_2600)">
<path d="M12.8744 0.688288H3.12547C2.79441 0.641053 2.4569 0.671531 2.13965 0.77731C1.82241 0.883089 1.53414 1.06127 1.29767 1.29773C1.0612 1.5342 0.883028 1.82247 0.777249 2.13971C0.67147 2.45696 0.640992 2.79447 0.688227 3.12553V15.3118L3.12547 12.8745H12.8744C13.2055 12.9217 13.543 12.8913 13.8603 12.7855C14.1775 12.6797 14.4658 12.5015 14.7022 12.2651C14.9387 12.0286 15.1169 11.7403 15.2227 11.4231C15.3284 11.1058 15.3589 10.7683 15.3117 10.4373V3.12553C15.3589 2.79447 15.3284 2.45696 15.2227 2.13971C15.1169 1.82247 14.9387 1.5342 14.7022 1.29773C14.4658 1.06127 14.1775 0.883089 13.8603 0.77731C13.543 0.671531 13.2055 0.641053 12.8744 0.688288ZM8.81237 9.01554H4.7503C4.5887 9.01554 4.43372 8.95134 4.31945 8.83708C4.20518 8.72281 4.14099 8.56783 4.14099 8.40623C4.14099 8.24463 4.20518 8.08965 4.31945 7.97538C4.43372 7.86111 4.5887 7.79692 4.7503 7.79692H8.81237C8.97397 7.79692 9.12895 7.86111 9.24322 7.97538C9.35749 8.08965 9.42169 8.24463 9.42169 8.40623C9.42169 8.56783 9.35749 8.72281 9.24322 8.83708C9.12895 8.95134 8.97397 9.01554 8.81237 9.01554ZM11.2496 5.76588H4.7503C4.5887 5.76588 4.43372 5.70168 4.31945 5.58742C4.20518 5.47315 4.14099 5.31817 4.14099 5.15657C4.14099 4.99497 4.20518 4.83999 4.31945 4.72572C4.43372 4.61145 4.5887 4.54726 4.7503 4.54726H11.2496C11.4112 4.54726 11.5662 4.61145 11.6805 4.72572C11.7947 4.83999 11.8589 4.99497 11.8589 5.15657C11.8589 5.31817 11.7947 5.47315 11.6805 5.58742C11.5662 5.70168 11.4112 5.76588 11.2496 5.76588Z" fill="#53B8E6"/>
</g>
<defs>
<clipPath id="clip0_688_2600">
<rect width="16" height="16" fill="white"/>
</clipPath>
</defs>
</svg>
