<svg width="20" height="21" viewBox="0 0 20 21" fill="none" xmlns="http://www.w3.org/2000/svg">
<g clip-path="url(#clip0_413_1844)">
<path d="M19.5272 11.882C19.3228 11.8307 19.1183 11.882 18.9394 12.0103C18.2748 12.5745 17.5081 13.0362 16.6646 13.344C15.8723 13.6518 15.0033 13.8057 14.0831 13.8057C12.0128 13.8057 10.1215 12.9593 8.76681 11.5999C7.41217 10.2405 6.56872 8.34251 6.56872 6.26497C6.56872 5.39291 6.72208 4.5465 6.97767 3.77704C7.25882 2.95628 7.66777 2.21247 8.20451 1.57125C8.43454 1.28912 8.38343 0.878739 8.10227 0.647901C7.92336 0.519657 7.71888 0.46836 7.51441 0.519657C5.34188 1.10958 3.4505 2.41766 2.09586 4.16177C0.792336 5.88024 0 8.00908 0 10.3431C0 13.1388 1.12461 15.678 2.96487 17.5247C4.80513 19.3715 7.3355 20.5 10.1215 20.5C12.4729 20.5 14.6454 19.6792 16.3835 18.3199C18.147 16.9348 19.425 14.9599 19.9618 12.7028C20.0895 12.3181 19.8851 11.959 19.5272 11.882ZM15.6167 17.2426C14.1342 18.4225 12.2429 19.1406 10.1726 19.1406C7.74444 19.1406 5.54635 18.1403 3.96168 16.5501C2.37701 14.9599 1.3802 12.7541 1.3802 10.3175C1.3802 8.29122 2.04474 6.44451 3.1949 4.95688C3.98724 3.93094 4.98405 3.08453 6.13421 2.49461C6.00642 2.77674 5.87862 3.05888 5.77638 3.36666C5.44411 4.29002 5.29076 5.26467 5.29076 6.29062C5.29076 8.72724 6.28757 10.9587 7.87224 12.5489C9.45691 14.1391 11.6806 15.1394 14.1087 15.1394C15.1822 15.1394 16.2045 14.9599 17.1502 14.6008C17.4825 14.4726 17.8148 14.3443 18.1215 14.1904C17.5081 15.3703 16.6646 16.4219 15.6167 17.2426Z" fill="#004F74"/>
</g>
<defs>
<clipPath id="clip0_413_1844">
<rect width="20" height="20" fill="white" transform="translate(0 0.5)"/>
</clipPath>
</defs>
</svg>
