<svg width="16" height="16" viewBox="0 0 16 16" fill="none" xmlns="http://www.w3.org/2000/svg">
<path fill-rule="evenodd" clip-rule="evenodd" d="M10.5555 2.53904C10.4575 2.17404 10.183 1.88254 9.824 1.76304C9.4655 1.64354 9.071 1.71204 8.7735 1.94604C7.1545 3.21803 3.903 5.77404 3.903 5.77404C3.785 5.86654 3.7335 6.02104 3.7725 6.16604L4.7695 9.88654C4.808 10.0315 4.93 10.139 5.0785 10.1605C5.0785 10.1605 9.1725 10.748 11.2105 11.0405C11.5845 11.094 11.961 10.9565 12.2115 10.6735C12.4625 10.3905 12.5545 10.001 12.457 9.63554C11.978 7.84754 11.0345 4.32703 10.5555 2.53904Z" fill="#53B8E6"/>
<path fill-rule="evenodd" clip-rule="evenodd" d="M4.497 5.97145C4.4435 5.77145 4.2375 5.65295 4.0375 5.70645C4.0375 5.70645 3.1045 5.95645 2.3435 6.16045C1.991 6.25495 1.691 6.48545 1.5085 6.80095C1.326 7.11695 1.2765 7.49245 1.371 7.84445C1.5185 8.39495 1.703 9.08245 1.8505 9.63295C1.9445 9.98545 2.175 10.2859 2.491 10.4679C2.807 10.6504 3.182 10.6999 3.5345 10.6054C4.2955 10.4014 5.2285 10.1514 5.2285 10.1514C5.4285 10.0979 5.5475 9.89195 5.494 9.69195L4.497 5.97145Z" fill="#53B8E6"/>
<path fill-rule="evenodd" clip-rule="evenodd" d="M5.80301 9.50647C5.67801 9.48897 5.55301 9.53497 5.46901 9.62897C5.38551 9.72347 5.35501 9.85347 5.38751 9.97497L5.88251 11.8235C5.93301 12.0115 6.11901 12.1295 6.31051 12.0955C6.36001 12.0865 6.41001 12.0755 6.45951 12.0625C7.35301 11.823 7.90151 10.9355 7.73501 10.0415C7.70551 9.88347 7.57851 9.76147 7.41951 9.73847L5.80301 9.50647ZM6.50301 11.2405L6.25901 10.33L7.01151 10.438C6.98651 10.771 6.79651 11.0745 6.50301 11.2405Z" fill="#53B8E6"/>
<path fill-rule="evenodd" clip-rule="evenodd" d="M6.11195 9.78098C6.07295 9.63598 5.95145 9.52798 5.80295 9.50648L5.18495 9.41798C5.13445 9.41098 5.08345 9.41398 5.03445 9.42698L3.72895 9.77698C3.62545 9.80448 3.53845 9.87498 3.49045 9.97098C3.44245 10.0665 3.43795 10.1785 3.47745 10.278C3.47745 10.278 4.32395 12.403 4.75495 13.485C4.96545 14.0135 5.53795 14.3005 6.08745 14.1535C6.70395 13.9885 7.06945 13.355 6.90445 12.739L6.11195 9.78098Z" fill="#53B8E6"/>
<path fill-rule="evenodd" clip-rule="evenodd" d="M14.4569 5.03848L13.0064 5.42698C12.8069 5.48048 12.6879 5.68648 12.7414 5.88648C12.7949 6.08648 13.0009 6.20498 13.2009 6.15148L14.6509 5.76298C14.8509 5.70948 14.9699 5.50348 14.9164 5.30348C14.8629 5.10348 14.6569 4.98498 14.4569 5.03848Z" fill="#53B8E6"/>
<path fill-rule="evenodd" clip-rule="evenodd" d="M13 2.31455L11.793 3.20755C11.627 3.33055 11.5915 3.56555 11.7145 3.73205C11.838 3.89855 12.073 3.93355 12.239 3.81055L13.4465 2.91755C13.6125 2.79455 13.648 2.55955 13.5245 2.39305C13.4015 2.22655 13.1665 2.19155 13 2.31455Z" fill="#53B8E6"/>
<path fill-rule="evenodd" clip-rule="evenodd" d="M14.7965 8.118L13.3075 7.925C13.102 7.8985 12.914 8.0435 12.8875 8.2485C12.8605 8.454 13.006 8.642 13.211 8.669L14.7 8.862C14.9055 8.8885 15.0935 8.7435 15.12 8.538C15.147 8.333 15.0015 8.1445 14.7965 8.118Z" fill="#53B8E6"/>
</svg>
