<svg width="25" height="24" viewBox="0 0 25 24" fill="none" xmlns="http://www.w3.org/2000/svg">
<path fill-rule="evenodd" clip-rule="evenodd" d="M12.5 1.25C8.21983 1.25 4.75004 4.71979 4.75004 9V9.7041C4.75004 10.401 4.54375 11.0824 4.15717 11.6622L3.00856 13.3851C1.67547 15.3848 2.69318 18.1028 5.01177 18.7351C5.76738 18.9412 6.52937 19.1155 7.29578 19.2581L7.29768 19.2632C8.06667 21.3151 10.122 22.75 12.5 22.75C14.878 22.75 16.9333 21.3151 17.7023 19.2632L17.7042 19.2581C18.4706 19.1155 19.2327 18.9412 19.9883 18.7351C22.3069 18.1028 23.3246 15.3848 21.9915 13.3851L20.8429 11.6622C20.4563 11.0824 20.25 10.401 20.25 9.7041V9C20.25 4.71979 16.7802 1.25 12.5 1.25ZM15.8764 19.537C13.6335 19.805 11.3664 19.8049 9.12349 19.5369C9.83444 20.5585 11.071 21.25 12.5 21.25C13.9289 21.25 15.1655 20.5585 15.8764 19.537ZM6.25004 9C6.25004 5.54822 9.04826 2.75 12.5 2.75C15.9518 2.75 18.75 5.54822 18.75 9V9.7041C18.75 10.6972 19.044 11.668 19.5948 12.4943L20.7434 14.2172C21.5086 15.3649 20.9245 16.925 19.5936 17.288C14.9494 18.5546 10.0507 18.5546 5.40644 17.288C4.07561 16.925 3.49147 15.3649 4.25664 14.2172L5.40524 12.4943C5.95609 11.668 6.25004 10.6972 6.25004 9.7041V9Z" fill="#688390"/>
</svg>
