<svg width="16" height="16" viewBox="0 0 16 16" fill="none" xmlns="http://www.w3.org/2000/svg">
<path fill-rule="evenodd" clip-rule="evenodd" d="M8 8.97729C8.27613 8.97729 8.5 9.19221 8.5 9.4573V10.7373C8.5 11.0024 8.27613 11.2173 8 11.2173C7.72387 11.2173 7.5 11.0024 7.5 10.7373V9.4573C7.5 9.19221 7.72387 8.97729 8 8.97729Z" fill="#2198CE"/>
<path fill-rule="evenodd" clip-rule="evenodd" d="M7.99996 6.41728C6.95089 6.41728 5.99923 6.43884 5.06269 6.48019C4.19003 6.51872 3.45949 7.17369 3.34069 8.02067C3.24378 8.71174 3.16663 9.40153 3.16663 10.0973C3.16663 10.793 3.24378 11.4828 3.34069 12.1739C3.45949 13.0209 4.19003 13.6758 5.06269 13.7144C5.99923 13.7557 6.95089 13.7773 7.99996 13.7773C9.04903 13.7773 10.0007 13.7557 10.9372 13.7144C11.8099 13.6758 12.5404 13.0209 12.6592 12.1739C12.7562 11.4828 12.8333 10.793 12.8333 10.0973C12.8333 9.40153 12.7562 8.71174 12.6592 8.02067C12.5404 7.17369 11.8099 6.51872 10.9372 6.48019C10.0007 6.43884 9.04903 6.41728 7.99996 6.41728ZM5.01677 5.5212C5.96905 5.47918 6.93609 5.45728 7.99996 5.45728C9.06383 5.45728 10.0309 5.47918 10.9832 5.5212C12.3552 5.58176 13.4692 6.60172 13.6503 7.8926C13.749 8.59686 13.8333 9.33683 13.8333 10.0973C13.8333 10.8577 13.749 11.5977 13.6503 12.3019C13.4692 13.5928 12.3552 14.6128 10.9832 14.6733C10.0309 14.7154 9.06383 14.7373 7.99996 14.7373C6.93609 14.7373 5.96905 14.7154 5.01677 14.6733C3.64473 14.6128 2.53069 13.5928 2.34964 12.3019C2.25087 11.5977 2.16663 10.8577 2.16663 10.0973C2.16663 9.33683 2.25087 8.59686 2.34964 7.8926C2.53069 6.60172 3.64473 5.58176 5.01677 5.5212Z" fill="#2198CE"/>
<path fill-rule="evenodd" clip-rule="evenodd" d="M7.99999 1.93729C6.61929 1.93729 5.5 3.01181 5.5 4.33729V5.93729C5.5 6.20239 5.27614 6.41729 5 6.41729C4.72385 6.41729 4.5 6.20239 4.5 5.93729V4.33729C4.5 2.48161 6.067 0.977295 7.99999 0.977295C9.93299 0.977295 11.5 2.48161 11.5 4.33729V5.93729C11.5 6.20239 11.2761 6.41729 11 6.41729C10.7239 6.41729 10.5 6.20239 10.5 5.93729V4.33729C10.5 3.01181 9.38073 1.93729 7.99999 1.93729Z" fill="#2198CE"/>
</svg>
