<svg width="12" height="12" viewBox="0 0 12 12" fill="none" xmlns="http://www.w3.org/2000/svg">
<g clip-path="url(#clip0_412_1750)">
<path d="M9.74386 8.02907C9.11844 7.49415 8.48373 7.17013 7.86599 7.70424L7.49712 8.02705C7.22724 8.26138 6.72545 9.35627 4.78536 7.12448C2.84567 4.89551 3.99995 4.54846 4.27024 4.31615L4.64112 3.99294C5.25564 3.45762 5.02373 2.78371 4.58052 2.09002L4.31306 1.66984C3.86784 0.977758 3.38301 0.523238 2.76689 1.05775L2.43398 1.34865C2.16167 1.54702 1.4005 2.19183 1.21587 3.41681C0.993657 4.88662 1.69463 6.56976 3.3006 8.41652C4.90454 10.2641 6.47496 11.1921 7.96255 11.176C9.19884 11.1626 9.94547 10.4992 10.179 10.258L10.5131 9.96674C11.1276 9.43263 10.7458 8.88882 10.12 8.35269L9.74386 8.02907Z" fill="#3BA5D7"/>
</g>
<defs>
<clipPath id="clip0_412_1750">
<rect width="10.3529" height="10.3529" fill="white" transform="translate(0.823547 0.823364)"/>
</clipPath>
</defs>
</svg>
