<svg width="16" height="16" viewBox="0 0 16 16" fill="none" xmlns="http://www.w3.org/2000/svg">
<g clip-path="url(#clip0_688_2596)">
<path d="M0.817147 6.82844C0.54916 6.10329 0.359992 5.36239 0.407284 4.57419C0.438812 4.08551 0.62798 3.67564 0.990551 3.32884C1.36889 2.96626 1.74722 2.57217 2.12556 2.20959C2.61424 1.72091 3.2448 1.72091 3.73348 2.20959C4.033 2.50911 4.34828 2.82439 4.64779 3.1239C4.94731 3.42342 5.24682 3.70717 5.53057 4.00669C6.05078 4.5269 6.05078 5.14169 5.53057 5.6619C5.168 6.04024 4.78967 6.40281 4.41133 6.76538C4.31675 6.85996 4.30098 6.93879 4.34828 7.0649C4.6005 7.66393 4.94731 8.18414 5.35717 8.68859C6.16113 9.68172 7.09121 10.5645 8.17892 11.2581C8.41538 11.4 8.6676 11.5103 8.91983 11.6364C9.04594 11.6995 9.12476 11.6837 9.23511 11.5734C9.59768 11.1951 9.97601 10.8167 10.3543 10.4384C10.843 9.94971 11.4736 9.94971 11.9623 10.4384C12.5613 11.0374 13.1761 11.6364 13.7751 12.2512C14.2796 12.7557 14.2796 13.3862 13.7751 13.8907C13.4283 14.2375 13.0658 14.5685 12.7505 14.9311C12.2776 15.4513 11.6943 15.6247 11.0164 15.5932C10.0391 15.5459 9.12476 15.2149 8.25774 14.7892C6.31877 13.8434 4.64779 12.535 3.26056 10.8798C2.22014 9.66595 1.36889 8.32601 0.817147 6.82844ZM15.5964 7.16075C15.2366 3.60961 12.4189 0.782227 8.8722 0.407425C8.44403 0.362178 8.06857 0.691108 8.06857 1.12166V1.13543C8.06857 1.50424 8.34818 1.81072 8.71496 1.84936C11.5734 2.15052 13.8613 4.4258 14.1662 7.2939C14.2055 7.6636 14.5163 7.94421 14.888 7.94013C15.3058 7.93554 15.6385 7.57638 15.5964 7.16075ZM8.06857 3.843V3.85307C8.06857 4.19679 8.30934 4.50228 8.64812 4.5603C9.34433 4.67955 9.9884 5.0122 10.4962 5.52003C11.004 6.02785 11.3367 6.67192 11.4559 7.36813C11.514 7.70691 11.8195 7.94768 12.1632 7.94768H12.1695C12.6129 7.94768 12.9571 7.54899 12.8796 7.11247C12.5197 5.08563 10.9177 3.48326 8.90091 3.13246C8.46527 3.05669 8.06857 3.40082 8.06857 3.843Z" fill="#53B8E6"/>
</g>
<defs>
<clipPath id="clip0_688_2596">
<rect width="16" height="16" fill="white"/>
</clipPath>
</defs>
</svg>
