<svg width="15" height="16" viewBox="0 0 15 16" fill="none" xmlns="http://www.w3.org/2000/svg">
<g clip-path="url(#clip0_688_2589)">
<path d="M12.9377 11.8532L11.7501 9.92892C11.5613 9.62301 11.2647 9.40895 10.915 9.32619C10.5652 9.24334 10.2041 9.30175 9.8984 9.49066C9.60281 9.67313 9.25393 9.7296 8.9159 9.64966C8.57787 9.56972 8.29128 9.36281 8.10881 9.06713L6.92249 7.14484C6.54572 6.53442 6.7357 5.73122 7.34796 5.35304C7.97805 4.96392 8.1742 4.1346 7.78525 3.50434L6.5977 1.58001C6.40896 1.2741 6.1124 1.06004 5.76264 0.977277C5.41296 0.894512 5.05181 0.952924 4.74599 1.14184L3.26408 2.05701C3.22949 2.07837 3.19711 2.09866 3.1642 2.12151C3.14637 2.13263 3.12352 2.14745 3.09802 2.16713C1.84472 3.06289 1.49214 4.78428 2.28978 6.10101C3.57087 8.7816 5.14393 11.3305 6.96555 13.6772C7.52258 14.5632 8.48452 15.0578 9.47152 15.0577C9.9367 15.0577 10.4076 14.9478 10.844 14.7173C10.8725 14.7034 10.8959 14.6897 10.914 14.6786C10.9494 14.6593 10.9821 14.6395 11.0166 14.6181L12.5005 13.7017C13.1307 13.3126 13.3269 12.4832 12.9378 11.853L12.9377 11.8532ZM12.0368 12.9511L10.5525 13.8677C10.5304 13.8813 10.51 13.8943 10.487 13.9065C10.4788 13.9109 10.4698 13.916 10.4619 13.921L10.4539 13.9258C10.4486 13.9284 10.4433 13.931 10.4382 13.9337C9.47681 14.446 8.27549 14.1206 7.70302 13.1931C7.69472 13.1796 7.68564 13.1666 7.67593 13.1541C5.88246 10.8462 4.33481 8.33848 3.07596 5.7006C3.06908 5.68631 3.06149 5.67237 3.0532 5.65886C2.48072 4.73125 2.72831 3.51095 3.61702 2.88069C3.62187 2.87725 3.62655 2.87372 3.63131 2.8701L3.63961 2.86489C3.64772 2.85987 3.65567 2.85457 3.66352 2.84901C3.6847 2.83392 3.70552 2.82148 3.72758 2.80781L5.2094 1.89263C5.31458 1.8276 5.43899 1.80757 5.55925 1.83598C5.67961 1.86448 5.7817 1.93816 5.84664 2.04342L7.0342 3.96775C7.1677 4.1841 7.10037 4.46875 6.88217 4.60357C5.85802 5.23595 5.53922 6.58384 6.17143 7.60825L7.35775 9.53054C7.66402 10.0268 8.14517 10.3741 8.71252 10.5084C9.27987 10.6426 9.86558 10.5479 10.3618 10.2415C10.467 10.1765 10.5913 10.1564 10.7116 10.1848C10.8319 10.2133 10.934 10.287 10.999 10.3923L12.1866 12.3166C12.3201 12.5329 12.2528 12.8176 12.0366 12.9511H12.0368Z" fill="#906D0F"/>
</g>
<defs>
<clipPath id="clip0_688_2589">
<rect width="15" height="15" fill="white" transform="translate(0 0.5)"/>
</clipPath>
</defs>
</svg>
