<svg width="24" height="24" viewBox="0 0 24 24" fill="none" xmlns="http://www.w3.org/2000/svg">
<path d="M7.13707 8.49165L5.34353 6.70203C4.66665 6.02498 4.4022 5.03842 4.64991 4.11361C4.89779 3.18884 5.62008 2.46651 6.54485 2.21885C7.46944 1.97096 8.45617 2.23541 9.1331 2.91229L14.7542 8.53343C15.4205 9.17001 15.7125 10.1047 15.5271 11.0073C15.3417 11.91 14.7049 12.6538 13.8418 12.9763C12.9785 13.2988 12.0102 13.1545 11.2783 12.5946C11.1144 12.4749 10.9099 12.4252 10.7095 12.4565C10.5089 12.4876 10.3291 12.5972 10.2095 12.7609C10.0898 12.9248 10.0401 13.1293 10.0714 13.3299C10.1024 13.5303 10.212 13.7101 10.3757 13.8298C11.5284 14.6663 13.026 14.863 14.3553 14.3522C15.6847 13.8414 16.6655 12.6926 16.9613 11.2996C17.2572 9.90651 16.8282 8.45831 15.8213 7.45125L10.2154 1.83011C9.14964 0.767246 7.59799 0.353593 6.14468 0.745045C4.69137 1.13633 3.5573 2.27349 3.16961 3.72781C2.78191 5.18212 3.19949 6.73277 4.26508 7.79563L6.05469 9.58525C6.24812 9.77867 6.52979 9.85412 6.79389 9.78328C7.05799 9.7126 7.26423 9.50638 7.33507 9.24227C7.40575 8.97817 7.33029 8.69633 7.13705 8.50307L7.13707 8.49165Z" fill="black"/>
<path d="M19.7331 16.2084L17.9626 14.4493C17.7693 14.2561 17.4875 14.1805 17.2234 14.2513C16.9593 14.322 16.753 14.5284 16.6824 14.7923C16.6115 15.0564 16.687 15.3383 16.8804 15.5315L18.6509 17.302C19.3278 17.9791 19.5922 18.9656 19.3445 19.8905C19.0966 20.8152 18.3744 21.5375 17.4496 21.7852C16.525 22.0331 15.5383 21.7687 14.8613 21.0918L9.24021 15.4706C8.57355 14.8316 8.28332 13.8941 8.47234 12.9903C8.66132 12.0863 9.30288 11.3437 10.1698 11.0253C11.0365 10.7071 12.0063 10.858 12.7353 11.4248C12.9547 11.588 13.2444 11.6218 13.4953 11.5136C13.7465 11.4054 13.9206 11.1713 13.9524 10.8999C13.9841 10.6283 13.8685 10.3606 13.6493 10.1972C12.5008 9.34874 11.0002 9.14097 9.6641 9.64526C8.32826 10.1496 7.3393 11.2973 7.03814 12.6931C6.73682 14.089 7.1643 15.5423 8.17325 16.5528L13.7944 22.1739C14.86 23.2347 16.4106 23.6465 17.8622 23.254C19.3138 22.8617 20.4457 21.7246 20.8316 20.2713C21.2175 18.818 20.7987 17.2693 19.7331 16.2084Z" fill="black"/>
</svg>
