<svg width="144" height="143" viewBox="0 0 144 143" fill="none" xmlns="http://www.w3.org/2000/svg">
<g clip-path="url(#clip0_511_4282)">
<path d="M143.313 1.23056C142.861 0.232917 141.716 -0.248589 140.687 0.127622L11.3733 47.3286C10.4186 47.6769 9.85194 48.6603 10.0287 49.661C10.2058 50.6617 11.0753 51.391 12.0916 51.391H54.613C54.613 51.391 62.5821 81.1354 62.5847 81.1435C62.6846 81.5007 62.8782 81.8362 63.1689 82.1079C63.5728 82.4855 64.0864 82.6724 64.5987 82.6724C65.1586 82.6724 65.7172 82.4492 66.1295 82.0079C66.1781 81.956 84.1491 62.5469 84.6499 61.983C84.7283 61.8947 84.8038 61.8093 84.8775 61.7252H124.089C125.014 61.7252 125.829 61.1194 126.095 60.234L143.411 2.6991C143.412 2.6977 143.412 2.69603 143.413 2.69463C143.412 2.69491 143.411 2.69519 143.411 2.69547C143.551 2.22625 143.53 1.70816 143.313 1.23056ZM67.481 57.9946C67.109 58.2918 66.8353 58.7161 66.7344 59.2193L64.3032 71.3763L58.6413 50.2392C60.4548 49.1742 64.9302 46.6301 75.6498 40.6789C76.6612 40.1172 77.0259 38.8422 76.4645 37.8306C75.9026 36.8195 74.6282 36.4548 73.6163 37.0159C67.8857 40.1976 55.8455 47.0253 55.5687 47.2015H23.9393L116.239 13.5112C105.191 19.58 92.1087 26.7786 80.9528 32.9505C79.9407 33.5104 79.5739 34.7849 80.1339 35.7973C80.6936 36.8095 81.9686 37.1765 82.9808 36.6162C94.9489 29.995 109.135 22.1917 120.646 15.8701L67.4877 57.9882C67.4852 57.9902 67.4832 57.9927 67.481 57.9946ZM68.1005 73.7519L70.506 61.7246H79.2321C76.4534 64.7606 72.1416 69.4111 68.1005 73.7519ZM122.532 57.5355H74.8053L137.477 7.88059L122.532 57.5355Z" fill="#688390"/>
<path d="M50.9984 82.4476C50.18 81.6298 48.8539 81.6298 48.0359 82.4476L29.7297 100.754C29.7942 99.8066 29.8269 98.852 29.8269 97.8937C29.8269 94.2302 28.2902 90.6949 25.6112 88.1941C22.8942 85.6581 19.3469 84.404 15.6239 84.6596C9.06517 85.112 3.77838 90.3988 3.32592 96.9575C3.06924 100.681 4.3244 104.228 6.8604 106.945C9.36122 109.624 12.8965 111.161 16.5601 111.161C19.012 111.161 21.4 110.743 23.6422 109.941C21.8379 115.2 18.8433 120.019 14.796 124.066L10.3307 128.532C9.5126 129.35 9.5126 130.676 10.3307 131.494C10.7398 131.903 11.2761 132.107 11.812 132.107C12.348 132.107 12.8843 131.903 13.2934 131.494L17.7588 127.029C23.2855 121.502 27.0493 114.681 28.7661 107.249C29.6914 106.584 30.5695 105.839 31.3912 105.017L50.9981 85.4106C51.8164 84.592 51.8164 83.2659 50.9984 82.4476ZM25.0183 104.692C22.4789 106.178 19.5804 106.971 16.5603 106.971C14.0171 106.971 11.6598 105.946 9.92316 104.086C8.18818 102.227 7.32962 99.7977 7.50558 97.2455C7.81448 92.7622 11.4288 89.1481 15.9121 88.839C16.1308 88.8239 16.3484 88.8163 16.5645 88.8163C18.876 88.8163 21.0528 89.6702 22.7526 91.2566C24.613 92.9932 25.6375 95.3502 25.6375 97.8937C25.6372 100.2 25.4277 102.473 25.0183 104.692Z" fill="#688390"/>
<path d="M111.682 75.0102C110.696 74.4053 109.406 74.7142 108.802 75.7004L99.5101 90.8466C99.4581 90.605 99.4034 90.3637 99.3456 90.1221C98.6783 87.3381 96.8668 84.9311 94.3755 83.5181C91.8484 82.0856 88.9248 81.7773 86.1427 82.6504C81.2399 84.1884 78.1844 89.1697 79.0352 94.2367C79.5181 97.1126 81.1176 99.579 83.5394 101.182C85.9279 102.763 88.8946 103.286 91.6789 102.62C93.1298 102.272 94.5037 101.735 95.7731 101.029C95.2734 104.662 94.0205 108.185 92.045 111.405L89.5998 115.391C88.9949 116.377 89.3038 117.667 90.29 118.272C90.6318 118.481 91.0097 118.581 91.3834 118.581C92.0875 118.581 92.7754 118.226 93.1706 117.582L95.6158 113.596C98.6604 108.633 100.22 103.046 100.212 97.3676C100.731 96.7514 101.207 96.092 101.636 95.3927L112.372 77.8906C112.977 76.9047 112.668 75.6152 111.682 75.0102ZM90.7025 98.5462C89.0192 98.9495 87.2965 98.6451 85.8517 97.689C84.4085 96.7338 83.455 95.262 83.1668 93.5437C82.6604 90.5279 84.4789 87.5634 87.397 86.6482C88.0179 86.4535 88.6502 86.3569 89.2772 86.3569C90.3291 86.3569 91.3661 86.6284 92.3087 87.1632C93.8158 88.0179 94.8676 89.4155 95.2709 91.0991C95.641 92.6436 95.8731 94.1998 95.9694 95.7524C94.4984 97.105 92.6994 98.0678 90.7025 98.5462Z" fill="#688390"/>
<path d="M8.78138 134.355C7.94098 133.561 6.61488 133.598 5.82056 134.44L1.07254 139.467C0.277939 140.308 0.315923 141.634 1.15716 142.428C1.56186 142.81 2.07884 143 2.59498 143C3.15105 143 3.7063 142.78 4.11798 142.343L8.866 137.316C9.6606 136.475 9.62262 135.149 8.78138 134.355Z" fill="#688390"/>
<path d="M61.6191 107.355C60.6743 106.687 59.3675 106.911 58.6994 107.856L50.5998 119.307C49.9317 120.252 50.1557 121.559 51.1003 122.227C51.4676 122.487 51.8899 122.612 52.308 122.612C52.9652 122.612 53.6117 122.303 54.0201 121.726L62.1196 110.275C62.7877 109.331 62.5637 108.023 61.6191 107.355Z" fill="#688390"/>
</g>
<defs>
<clipPath id="clip0_511_4282">
<rect width="143" height="143" fill="white" transform="translate(0.5)"/>
</clipPath>
</defs>
</svg>
