<svg width="24" height="24" viewBox="0 0 24 24" fill="none" xmlns="http://www.w3.org/2000/svg">
<g clip-path="url(#clip0_513_7236)">
<path d="M11.9987 20.0333C11.5464 20.0333 11.1797 20.3999 11.1797 20.8522V23.1808C11.1797 23.6331 11.5464 23.9997 11.9987 23.9997C12.4511 23.9997 12.8176 23.6331 12.8176 23.1808V20.8522C12.8176 20.3998 12.451 20.0333 11.9987 20.0333Z" fill="#B9B9B9"/>
<path d="M11.9987 3.967C12.4511 3.967 12.8176 3.60032 12.8176 3.14802V0.819284C12.8176 0.366989 12.4511 0.000305176 11.9987 0.000305176C11.5464 0.000305176 11.1797 0.366989 11.1797 0.819284V3.14802C11.1797 3.60032 11.5464 3.967 11.9987 3.967Z" fill="#B9B9B9"/>
<path d="M5.16159 17.68L3.51446 19.3262C3.19451 19.646 3.1944 20.1645 3.51413 20.4844C3.6741 20.6444 3.88376 20.7244 4.09342 20.7244C4.30297 20.7244 4.51241 20.6445 4.67238 20.4847L6.31951 18.8385C6.63946 18.5187 6.63957 18.0001 6.31984 17.6803C5.99989 17.3604 5.48142 17.3604 5.16159 17.68Z" fill="#B9B9B9"/>
<path d="M18.2584 6.5591C18.4679 6.5591 18.6775 6.47917 18.8374 6.31931L20.4843 4.67305C20.8042 4.35321 20.8043 3.83474 20.4846 3.5148C20.1647 3.19485 19.6463 3.19474 19.3263 3.51469L17.6794 5.16094C17.3596 5.48067 17.3595 5.99925 17.6792 6.31909C17.839 6.47917 18.0487 6.5591 18.2584 6.5591Z" fill="#B9B9B9"/>
<path d="M3.96648 12.0002C3.96648 11.5479 3.59979 11.1812 3.1475 11.1812H0.818978C0.366684 11.1812 0 11.5479 0 12.0002C0 12.4525 0.366684 12.8192 0.818978 12.8192H3.1475C3.59979 12.8192 3.96648 12.4525 3.96648 12.0002Z" fill="#B9B9B9"/>
<path d="M23.1808 11.1812H20.8512C20.3988 11.1812 20.0322 11.5479 20.0322 12.0002C20.0322 12.4525 20.3988 12.8192 20.8512 12.8192H23.1808C23.6332 12.8192 23.9998 12.4525 23.9998 12.0002C23.9998 11.548 23.6332 11.1812 23.1808 11.1812Z" fill="#B9B9B9"/>
<path d="M5.16153 6.31935C5.32139 6.47922 5.53105 6.55915 5.7406 6.55915C5.95015 6.55915 6.15981 6.47922 6.31967 6.31935C6.63951 5.99951 6.63951 5.48094 6.31967 5.1611L4.67341 3.51484C4.35358 3.195 3.835 3.195 3.51527 3.51484C3.19543 3.83468 3.19543 4.35326 3.51527 4.67299L5.16153 6.31935Z" fill="#B9B9B9"/>
<path d="M18.8387 17.6802C18.5188 17.3603 18.0002 17.3602 17.6804 17.6801C17.3605 17.9999 17.3605 18.5185 17.6803 18.8382L19.3263 20.4845C19.4863 20.6444 19.6959 20.7244 19.9055 20.7244C20.1151 20.7244 20.3247 20.6444 20.4846 20.4846C20.8045 20.1647 20.8045 19.6462 20.4847 19.3264L18.8387 17.6802Z" fill="#B9B9B9"/>
<path d="M11.9992 5.62561C8.48444 5.62561 5.625 8.48526 5.625 12.0002C5.625 15.515 8.48444 18.3746 11.9992 18.3746C15.5142 18.3746 18.3739 15.515 18.3739 12.0002C18.3739 8.48526 15.5141 5.62561 11.9992 5.62561ZM11.9992 16.7366C9.38761 16.7366 7.26296 14.6119 7.26296 12.0002C7.26296 9.38843 9.38761 7.26357 11.9992 7.26357C14.611 7.26357 16.7359 9.38843 16.7359 12.0002C16.7359 14.6119 14.611 16.7366 11.9992 16.7366Z" fill="#B9B9B9"/>
</g>
<defs>
<clipPath id="clip0_513_7236">
<rect width="24" height="24" fill="white"/>
</clipPath>
</defs>
</svg>
