<svg width="24" height="24" viewBox="0 0 24 24" fill="none" xmlns="http://www.w3.org/2000/svg">
<g clip-path="url(#clip0_691_10251)">
<path fill-rule="evenodd" clip-rule="evenodd" d="M24 12C24 5.37257 18.6274 0 12 0C5.37257 0 0 5.37257 0 12C0 18.6274 5.37257 24 12 24C18.6274 24 24 18.6274 24 12Z" fill="#E92B2B"/>
<path fill-rule="evenodd" clip-rule="evenodd" d="M0 12H12V0C11.9993 0 11.9985 0 11.9977 0C5.37214 0.00121071 0.00121071 5.37214 0 11.9977V12Z" fill="#2A2FAF"/>
<path fill-rule="evenodd" clip-rule="evenodd" d="M7.02054 5.15268L6.43216 3.42859L5.85064 5.1327L4.33543 4.06962L4.91164 5.79779H3.00722L4.53 6.85116L3 7.89452L4.90393 7.90679L4.31545 9.63125L5.83854 8.57766L6.40805 10.2857L7.00859 8.56571L8.54893 9.63125L7.96714 7.9265L9.84975 7.93866L8.31696 6.86321L9.85714 5.79779H7.97496L8.5688 4.09684L7.02054 5.15268Z" fill="#FBFBFB"/>
<path fill-rule="evenodd" clip-rule="evenodd" d="M6.4285 5.04397C5.42709 5.04397 4.61532 5.85574 4.61532 6.85715C4.61532 7.85856 5.42709 8.67033 6.4285 8.67033C7.42991 8.67033 8.24168 7.85856 8.24168 6.85715C8.24168 5.85574 7.42991 5.04397 6.4285 5.04397ZM4.28564 6.85715C4.28564 5.67371 5.24506 4.71429 6.4285 4.71429C7.61195 4.71429 8.57136 5.67371 8.57136 6.85715C8.57136 8.0406 7.61195 9.00001 6.4285 9.00001C5.24506 9.00001 4.28564 8.0406 4.28564 6.85715Z" fill="#2A2FAF"/>
</g>
<defs>
<clipPath id="clip0_691_10251">
<rect width="24" height="24" fill="white"/>
</clipPath>
</defs>
</svg>
