<svg width="15" height="16" viewBox="0 0 15 16" fill="none" xmlns="http://www.w3.org/2000/svg">
<path d="M9.94963 9.21424L8.0325 7.7764V4.84749C8.0325 4.55299 7.79445 4.31494 7.49995 4.31494C7.20545 4.31494 6.96741 4.55299 6.96741 4.84749V8.0427C6.96741 8.21044 7.04623 8.36861 7.18042 8.46873L9.31055 10.0663C9.40639 10.1382 9.51825 10.1728 9.62954 10.1728C9.79196 10.1728 9.95172 10.0999 10.0561 9.95929C10.233 9.72441 10.185 9.39052 9.94963 9.21424Z" fill="#906D0F"/>
<path d="M7.5 1.125C3.70889 1.125 0.625 4.20889 0.625 8C0.625 11.7911 3.70889 14.875 7.5 14.875C11.2911 14.875 14.375 11.7911 14.375 8C14.375 4.20889 11.2911 1.125 7.5 1.125ZM7.5 13.8099C4.29681 13.8099 1.69006 11.2032 1.69006 8C1.69006 4.79681 4.29681 2.19006 7.5 2.19006C10.7037 2.19006 13.3099 4.79681 13.3099 8C13.3099 11.2032 10.7032 13.8099 7.5 13.8099Z" fill="#906D0F"/>
</svg>
