<svg width="16" height="16" viewBox="0 0 16 16" fill="none" xmlns="http://www.w3.org/2000/svg">
<path d="M7.99696 8.47683C5.98192 8.47683 4.34192 6.83683 4.34192 4.82179C4.34192 2.80675 5.98192 1.16675 7.99696 1.16675C10.012 1.16675 11.652 2.80675 11.652 4.82179C11.652 6.83683 10.012 8.47683 7.99696 8.47683ZM7.99696 2.12024C6.50952 2.12024 5.29541 3.33435 5.29541 4.82179C5.29541 6.30923 6.50952 7.52334 7.99696 7.52334C9.4844 7.52334 10.6985 6.30923 10.6985 4.82179C10.6985 3.33435 9.4844 2.12024 7.99696 2.12024Z" fill="#3BA5D7"/>
<path d="M13.4574 14.8335C13.1968 14.8335 12.9806 14.6174 12.9806 14.3568C12.9806 12.1638 10.7432 10.3839 7.99714 10.3839C5.25106 10.3839 3.01355 12.1638 3.01355 14.3568C3.01355 14.6174 2.79742 14.8335 2.5368 14.8335C2.27618 14.8335 2.06006 14.6174 2.06006 14.3568C2.06006 11.6425 4.72346 9.43042 7.99714 9.43042C11.2708 9.43042 13.9341 11.6425 13.9341 14.3568C13.9341 14.6174 13.718 14.8335 13.4574 14.8335Z" fill="#3BA5D7"/>
</svg>
